%TF.GenerationSoftware,KiCad,Pcbnew,8.0.6*%
%TF.CreationDate,2024-11-27T16:10:35-06:00*%
%TF.ProjectId,hotdog_pad,686f7464-6f67-45f7-9061-642e6b696361,rev?*%
%TF.SameCoordinates,Original*%
%TF.FileFunction,Drillmap*%
%TF.FilePolarity,Positive*%
%FSLAX45Y45*%
G04 Gerber Fmt 4.5, Leading zero omitted, Abs format (unit mm)*
G04 Created by KiCad (PCBNEW 8.0.6) date 2024-11-27 16:10:35*
%MOMM*%
%LPD*%
G01*
G04 APERTURE LIST*
%ADD10C,0.200000*%
%ADD11C,0.100000*%
%ADD12C,0.170180*%
%ADD13C,0.342900*%
G04 APERTURE END LIST*
D10*
X8300000Y-8600000D02*
X16800000Y-8600000D01*
X16800000Y-3600000D02*
G75*
G02*
X17200000Y-4000000I0J-400000D01*
G01*
X7900000Y-4000000D02*
G75*
G02*
X8300000Y-3600000I400000J0D01*
G01*
X17200000Y-8200000D02*
G75*
G02*
X16800000Y-8600000I-400000J0D01*
G01*
X17200000Y-8200000D02*
X17200000Y-4000000D01*
X7900000Y-4000000D02*
X7900000Y-8200000D01*
X16800000Y-3600000D02*
X8300000Y-3600000D01*
X8300000Y-8600000D02*
G75*
G02*
X7900000Y-8200000I0J400000D01*
G01*
D11*
X9400470Y-4200470D02*
X9499530Y-4299530D01*
X9499530Y-4200470D02*
X9400470Y-4299530D01*
X11200470Y-4200470D02*
X11299530Y-4299530D01*
X11299530Y-4200470D02*
X11200470Y-4299530D01*
X13000470Y-4200470D02*
X13099530Y-4299530D01*
X13099530Y-4200470D02*
X13000470Y-4299530D01*
X14800470Y-4200470D02*
X14899530Y-4299530D01*
X14899530Y-4200470D02*
X14800470Y-4299530D01*
X16600470Y-4200470D02*
X16699530Y-4299530D01*
X16699530Y-4200470D02*
X16600470Y-4299530D01*
D12*
X8463090Y-4670000D02*
G75*
G02*
X8292910Y-4670000I-85090J0D01*
G01*
X8292910Y-4670000D02*
G75*
G02*
X8463090Y-4670000I85090J0D01*
G01*
X9563090Y-4670000D02*
G75*
G02*
X9392910Y-4670000I-85090J0D01*
G01*
X9392910Y-4670000D02*
G75*
G02*
X9563090Y-4670000I85090J0D01*
G01*
X10263090Y-4670000D02*
G75*
G02*
X10092910Y-4670000I-85090J0D01*
G01*
X10092910Y-4670000D02*
G75*
G02*
X10263090Y-4670000I85090J0D01*
G01*
X11363090Y-4670000D02*
G75*
G02*
X11192910Y-4670000I-85090J0D01*
G01*
X11192910Y-4670000D02*
G75*
G02*
X11363090Y-4670000I85090J0D01*
G01*
X12063090Y-4670000D02*
G75*
G02*
X11892910Y-4670000I-85090J0D01*
G01*
X11892910Y-4670000D02*
G75*
G02*
X12063090Y-4670000I85090J0D01*
G01*
X13163090Y-4670000D02*
G75*
G02*
X12992910Y-4670000I-85090J0D01*
G01*
X12992910Y-4670000D02*
G75*
G02*
X13163090Y-4670000I85090J0D01*
G01*
X13863090Y-4670000D02*
G75*
G02*
X13692910Y-4670000I-85090J0D01*
G01*
X13692910Y-4670000D02*
G75*
G02*
X13863090Y-4670000I85090J0D01*
G01*
X14963090Y-4670000D02*
G75*
G02*
X14792910Y-4670000I-85090J0D01*
G01*
X14792910Y-4670000D02*
G75*
G02*
X14963090Y-4670000I85090J0D01*
G01*
X15663090Y-4670000D02*
G75*
G02*
X15492910Y-4670000I-85090J0D01*
G01*
X15492910Y-4670000D02*
G75*
G02*
X15663090Y-4670000I85090J0D01*
G01*
X16763090Y-4670000D02*
G75*
G02*
X16592910Y-4670000I-85090J0D01*
G01*
X16592910Y-4670000D02*
G75*
G02*
X16763090Y-4670000I85090J0D01*
G01*
D13*
X8928000Y-4498550D02*
X8928000Y-4841450D01*
X8756550Y-4670000D02*
X9099450Y-4670000D01*
X10728000Y-4498550D02*
X10728000Y-4841450D01*
X10556550Y-4670000D02*
X10899450Y-4670000D01*
X12528000Y-4498550D02*
X12528000Y-4841450D01*
X12356550Y-4670000D02*
X12699450Y-4670000D01*
X14328000Y-4498550D02*
X14328000Y-4841450D01*
X14156550Y-4670000D02*
X14499450Y-4670000D01*
X16128000Y-4498550D02*
X16128000Y-4841450D01*
X15956550Y-4670000D02*
X16299450Y-4670000D01*
D10*
X8150777Y-8921484D02*
X8150777Y-8721484D01*
X8150777Y-8721484D02*
X8198396Y-8721484D01*
X8198396Y-8721484D02*
X8226967Y-8731008D01*
X8226967Y-8731008D02*
X8246015Y-8750055D01*
X8246015Y-8750055D02*
X8255539Y-8769103D01*
X8255539Y-8769103D02*
X8265062Y-8807198D01*
X8265062Y-8807198D02*
X8265062Y-8835770D01*
X8265062Y-8835770D02*
X8255539Y-8873865D01*
X8255539Y-8873865D02*
X8246015Y-8892912D01*
X8246015Y-8892912D02*
X8226967Y-8911960D01*
X8226967Y-8911960D02*
X8198396Y-8921484D01*
X8198396Y-8921484D02*
X8150777Y-8921484D01*
X8350777Y-8921484D02*
X8350777Y-8788150D01*
X8350777Y-8826246D02*
X8360301Y-8807198D01*
X8360301Y-8807198D02*
X8369824Y-8797674D01*
X8369824Y-8797674D02*
X8388872Y-8788150D01*
X8388872Y-8788150D02*
X8407920Y-8788150D01*
X8474586Y-8921484D02*
X8474586Y-8788150D01*
X8474586Y-8721484D02*
X8465063Y-8731008D01*
X8465063Y-8731008D02*
X8474586Y-8740531D01*
X8474586Y-8740531D02*
X8484110Y-8731008D01*
X8484110Y-8731008D02*
X8474586Y-8721484D01*
X8474586Y-8721484D02*
X8474586Y-8740531D01*
X8598396Y-8921484D02*
X8579348Y-8911960D01*
X8579348Y-8911960D02*
X8569824Y-8892912D01*
X8569824Y-8892912D02*
X8569824Y-8721484D01*
X8703158Y-8921484D02*
X8684110Y-8911960D01*
X8684110Y-8911960D02*
X8674586Y-8892912D01*
X8674586Y-8892912D02*
X8674586Y-8721484D01*
X8931729Y-8921484D02*
X8931729Y-8721484D01*
X8931729Y-8721484D02*
X8998396Y-8864341D01*
X8998396Y-8864341D02*
X9065063Y-8721484D01*
X9065063Y-8721484D02*
X9065063Y-8921484D01*
X9246015Y-8921484D02*
X9246015Y-8816722D01*
X9246015Y-8816722D02*
X9236491Y-8797674D01*
X9236491Y-8797674D02*
X9217444Y-8788150D01*
X9217444Y-8788150D02*
X9179348Y-8788150D01*
X9179348Y-8788150D02*
X9160301Y-8797674D01*
X9246015Y-8911960D02*
X9226967Y-8921484D01*
X9226967Y-8921484D02*
X9179348Y-8921484D01*
X9179348Y-8921484D02*
X9160301Y-8911960D01*
X9160301Y-8911960D02*
X9150777Y-8892912D01*
X9150777Y-8892912D02*
X9150777Y-8873865D01*
X9150777Y-8873865D02*
X9160301Y-8854817D01*
X9160301Y-8854817D02*
X9179348Y-8845293D01*
X9179348Y-8845293D02*
X9226967Y-8845293D01*
X9226967Y-8845293D02*
X9246015Y-8835770D01*
X9341253Y-8788150D02*
X9341253Y-8988150D01*
X9341253Y-8797674D02*
X9360301Y-8788150D01*
X9360301Y-8788150D02*
X9398396Y-8788150D01*
X9398396Y-8788150D02*
X9417444Y-8797674D01*
X9417444Y-8797674D02*
X9426967Y-8807198D01*
X9426967Y-8807198D02*
X9436491Y-8826246D01*
X9436491Y-8826246D02*
X9436491Y-8883389D01*
X9436491Y-8883389D02*
X9426967Y-8902436D01*
X9426967Y-8902436D02*
X9417444Y-8911960D01*
X9417444Y-8911960D02*
X9398396Y-8921484D01*
X9398396Y-8921484D02*
X9360301Y-8921484D01*
X9360301Y-8921484D02*
X9341253Y-8911960D01*
X9522205Y-8902436D02*
X9531729Y-8911960D01*
X9531729Y-8911960D02*
X9522205Y-8921484D01*
X9522205Y-8921484D02*
X9512682Y-8911960D01*
X9512682Y-8911960D02*
X9522205Y-8902436D01*
X9522205Y-8902436D02*
X9522205Y-8921484D01*
X9522205Y-8797674D02*
X9531729Y-8807198D01*
X9531729Y-8807198D02*
X9522205Y-8816722D01*
X9522205Y-8816722D02*
X9512682Y-8807198D01*
X9512682Y-8807198D02*
X9522205Y-8797674D01*
X9522205Y-8797674D02*
X9522205Y-8816722D01*
D11*
X7790940Y-9200470D02*
X7890000Y-9299530D01*
X7890000Y-9200470D02*
X7790940Y-9299530D01*
D10*
X8188872Y-9141484D02*
X8207920Y-9141484D01*
X8207920Y-9141484D02*
X8226967Y-9151008D01*
X8226967Y-9151008D02*
X8236491Y-9160531D01*
X8236491Y-9160531D02*
X8246015Y-9179579D01*
X8246015Y-9179579D02*
X8255539Y-9217674D01*
X8255539Y-9217674D02*
X8255539Y-9265293D01*
X8255539Y-9265293D02*
X8246015Y-9303389D01*
X8246015Y-9303389D02*
X8236491Y-9322436D01*
X8236491Y-9322436D02*
X8226967Y-9331960D01*
X8226967Y-9331960D02*
X8207920Y-9341484D01*
X8207920Y-9341484D02*
X8188872Y-9341484D01*
X8188872Y-9341484D02*
X8169824Y-9331960D01*
X8169824Y-9331960D02*
X8160301Y-9322436D01*
X8160301Y-9322436D02*
X8150777Y-9303389D01*
X8150777Y-9303389D02*
X8141253Y-9265293D01*
X8141253Y-9265293D02*
X8141253Y-9217674D01*
X8141253Y-9217674D02*
X8150777Y-9179579D01*
X8150777Y-9179579D02*
X8160301Y-9160531D01*
X8160301Y-9160531D02*
X8169824Y-9151008D01*
X8169824Y-9151008D02*
X8188872Y-9141484D01*
X8341253Y-9322436D02*
X8350777Y-9331960D01*
X8350777Y-9331960D02*
X8341253Y-9341484D01*
X8341253Y-9341484D02*
X8331729Y-9331960D01*
X8331729Y-9331960D02*
X8341253Y-9322436D01*
X8341253Y-9322436D02*
X8341253Y-9341484D01*
X8446015Y-9341484D02*
X8484110Y-9341484D01*
X8484110Y-9341484D02*
X8503158Y-9331960D01*
X8503158Y-9331960D02*
X8512682Y-9322436D01*
X8512682Y-9322436D02*
X8531729Y-9293865D01*
X8531729Y-9293865D02*
X8541253Y-9255770D01*
X8541253Y-9255770D02*
X8541253Y-9179579D01*
X8541253Y-9179579D02*
X8531729Y-9160531D01*
X8531729Y-9160531D02*
X8522205Y-9151008D01*
X8522205Y-9151008D02*
X8503158Y-9141484D01*
X8503158Y-9141484D02*
X8465063Y-9141484D01*
X8465063Y-9141484D02*
X8446015Y-9151008D01*
X8446015Y-9151008D02*
X8436491Y-9160531D01*
X8436491Y-9160531D02*
X8426967Y-9179579D01*
X8426967Y-9179579D02*
X8426967Y-9227198D01*
X8426967Y-9227198D02*
X8436491Y-9246246D01*
X8436491Y-9246246D02*
X8446015Y-9255770D01*
X8446015Y-9255770D02*
X8465063Y-9265293D01*
X8465063Y-9265293D02*
X8503158Y-9265293D01*
X8503158Y-9265293D02*
X8522205Y-9255770D01*
X8522205Y-9255770D02*
X8531729Y-9246246D01*
X8531729Y-9246246D02*
X8541253Y-9227198D01*
X8636491Y-9341484D02*
X8674586Y-9341484D01*
X8674586Y-9341484D02*
X8693634Y-9331960D01*
X8693634Y-9331960D02*
X8703158Y-9322436D01*
X8703158Y-9322436D02*
X8722205Y-9293865D01*
X8722205Y-9293865D02*
X8731729Y-9255770D01*
X8731729Y-9255770D02*
X8731729Y-9179579D01*
X8731729Y-9179579D02*
X8722205Y-9160531D01*
X8722205Y-9160531D02*
X8712682Y-9151008D01*
X8712682Y-9151008D02*
X8693634Y-9141484D01*
X8693634Y-9141484D02*
X8655539Y-9141484D01*
X8655539Y-9141484D02*
X8636491Y-9151008D01*
X8636491Y-9151008D02*
X8626967Y-9160531D01*
X8626967Y-9160531D02*
X8617444Y-9179579D01*
X8617444Y-9179579D02*
X8617444Y-9227198D01*
X8617444Y-9227198D02*
X8626967Y-9246246D01*
X8626967Y-9246246D02*
X8636491Y-9255770D01*
X8636491Y-9255770D02*
X8655539Y-9265293D01*
X8655539Y-9265293D02*
X8693634Y-9265293D01*
X8693634Y-9265293D02*
X8712682Y-9255770D01*
X8712682Y-9255770D02*
X8722205Y-9246246D01*
X8722205Y-9246246D02*
X8731729Y-9227198D01*
X8922205Y-9341484D02*
X8807920Y-9341484D01*
X8865063Y-9341484D02*
X8865063Y-9141484D01*
X8865063Y-9141484D02*
X8846015Y-9170055D01*
X8846015Y-9170055D02*
X8826967Y-9189103D01*
X8826967Y-9189103D02*
X8807920Y-9198627D01*
X9007920Y-9341484D02*
X9007920Y-9208150D01*
X9007920Y-9227198D02*
X9017444Y-9217674D01*
X9017444Y-9217674D02*
X9036491Y-9208150D01*
X9036491Y-9208150D02*
X9065063Y-9208150D01*
X9065063Y-9208150D02*
X9084110Y-9217674D01*
X9084110Y-9217674D02*
X9093634Y-9236722D01*
X9093634Y-9236722D02*
X9093634Y-9341484D01*
X9093634Y-9236722D02*
X9103158Y-9217674D01*
X9103158Y-9217674D02*
X9122205Y-9208150D01*
X9122205Y-9208150D02*
X9150777Y-9208150D01*
X9150777Y-9208150D02*
X9169825Y-9217674D01*
X9169825Y-9217674D02*
X9179348Y-9236722D01*
X9179348Y-9236722D02*
X9179348Y-9341484D01*
X9274586Y-9341484D02*
X9274586Y-9208150D01*
X9274586Y-9227198D02*
X9284110Y-9217674D01*
X9284110Y-9217674D02*
X9303158Y-9208150D01*
X9303158Y-9208150D02*
X9331729Y-9208150D01*
X9331729Y-9208150D02*
X9350777Y-9217674D01*
X9350777Y-9217674D02*
X9360301Y-9236722D01*
X9360301Y-9236722D02*
X9360301Y-9341484D01*
X9360301Y-9236722D02*
X9369825Y-9217674D01*
X9369825Y-9217674D02*
X9388872Y-9208150D01*
X9388872Y-9208150D02*
X9417444Y-9208150D01*
X9417444Y-9208150D02*
X9436491Y-9217674D01*
X9436491Y-9217674D02*
X9446015Y-9236722D01*
X9446015Y-9236722D02*
X9446015Y-9341484D01*
X9836491Y-9131960D02*
X9665063Y-9389103D01*
X10093634Y-9141484D02*
X10112682Y-9141484D01*
X10112682Y-9141484D02*
X10131729Y-9151008D01*
X10131729Y-9151008D02*
X10141253Y-9160531D01*
X10141253Y-9160531D02*
X10150777Y-9179579D01*
X10150777Y-9179579D02*
X10160301Y-9217674D01*
X10160301Y-9217674D02*
X10160301Y-9265293D01*
X10160301Y-9265293D02*
X10150777Y-9303389D01*
X10150777Y-9303389D02*
X10141253Y-9322436D01*
X10141253Y-9322436D02*
X10131729Y-9331960D01*
X10131729Y-9331960D02*
X10112682Y-9341484D01*
X10112682Y-9341484D02*
X10093634Y-9341484D01*
X10093634Y-9341484D02*
X10074587Y-9331960D01*
X10074587Y-9331960D02*
X10065063Y-9322436D01*
X10065063Y-9322436D02*
X10055539Y-9303389D01*
X10055539Y-9303389D02*
X10046015Y-9265293D01*
X10046015Y-9265293D02*
X10046015Y-9217674D01*
X10046015Y-9217674D02*
X10055539Y-9179579D01*
X10055539Y-9179579D02*
X10065063Y-9160531D01*
X10065063Y-9160531D02*
X10074587Y-9151008D01*
X10074587Y-9151008D02*
X10093634Y-9141484D01*
X10246015Y-9322436D02*
X10255539Y-9331960D01*
X10255539Y-9331960D02*
X10246015Y-9341484D01*
X10246015Y-9341484D02*
X10236491Y-9331960D01*
X10236491Y-9331960D02*
X10246015Y-9322436D01*
X10246015Y-9322436D02*
X10246015Y-9341484D01*
X10379348Y-9141484D02*
X10398396Y-9141484D01*
X10398396Y-9141484D02*
X10417444Y-9151008D01*
X10417444Y-9151008D02*
X10426968Y-9160531D01*
X10426968Y-9160531D02*
X10436491Y-9179579D01*
X10436491Y-9179579D02*
X10446015Y-9217674D01*
X10446015Y-9217674D02*
X10446015Y-9265293D01*
X10446015Y-9265293D02*
X10436491Y-9303389D01*
X10436491Y-9303389D02*
X10426968Y-9322436D01*
X10426968Y-9322436D02*
X10417444Y-9331960D01*
X10417444Y-9331960D02*
X10398396Y-9341484D01*
X10398396Y-9341484D02*
X10379348Y-9341484D01*
X10379348Y-9341484D02*
X10360301Y-9331960D01*
X10360301Y-9331960D02*
X10350777Y-9322436D01*
X10350777Y-9322436D02*
X10341253Y-9303389D01*
X10341253Y-9303389D02*
X10331729Y-9265293D01*
X10331729Y-9265293D02*
X10331729Y-9217674D01*
X10331729Y-9217674D02*
X10341253Y-9179579D01*
X10341253Y-9179579D02*
X10350777Y-9160531D01*
X10350777Y-9160531D02*
X10360301Y-9151008D01*
X10360301Y-9151008D02*
X10379348Y-9141484D01*
X10512682Y-9141484D02*
X10636491Y-9141484D01*
X10636491Y-9141484D02*
X10569825Y-9217674D01*
X10569825Y-9217674D02*
X10598396Y-9217674D01*
X10598396Y-9217674D02*
X10617444Y-9227198D01*
X10617444Y-9227198D02*
X10626968Y-9236722D01*
X10626968Y-9236722D02*
X10636491Y-9255770D01*
X10636491Y-9255770D02*
X10636491Y-9303389D01*
X10636491Y-9303389D02*
X10626968Y-9322436D01*
X10626968Y-9322436D02*
X10617444Y-9331960D01*
X10617444Y-9331960D02*
X10598396Y-9341484D01*
X10598396Y-9341484D02*
X10541253Y-9341484D01*
X10541253Y-9341484D02*
X10522206Y-9331960D01*
X10522206Y-9331960D02*
X10512682Y-9322436D01*
X10731729Y-9341484D02*
X10769825Y-9341484D01*
X10769825Y-9341484D02*
X10788872Y-9331960D01*
X10788872Y-9331960D02*
X10798396Y-9322436D01*
X10798396Y-9322436D02*
X10817444Y-9293865D01*
X10817444Y-9293865D02*
X10826968Y-9255770D01*
X10826968Y-9255770D02*
X10826968Y-9179579D01*
X10826968Y-9179579D02*
X10817444Y-9160531D01*
X10817444Y-9160531D02*
X10807920Y-9151008D01*
X10807920Y-9151008D02*
X10788872Y-9141484D01*
X10788872Y-9141484D02*
X10750777Y-9141484D01*
X10750777Y-9141484D02*
X10731729Y-9151008D01*
X10731729Y-9151008D02*
X10722206Y-9160531D01*
X10722206Y-9160531D02*
X10712682Y-9179579D01*
X10712682Y-9179579D02*
X10712682Y-9227198D01*
X10712682Y-9227198D02*
X10722206Y-9246246D01*
X10722206Y-9246246D02*
X10731729Y-9255770D01*
X10731729Y-9255770D02*
X10750777Y-9265293D01*
X10750777Y-9265293D02*
X10788872Y-9265293D01*
X10788872Y-9265293D02*
X10807920Y-9255770D01*
X10807920Y-9255770D02*
X10817444Y-9246246D01*
X10817444Y-9246246D02*
X10826968Y-9227198D01*
X10950777Y-9141484D02*
X10969825Y-9141484D01*
X10969825Y-9141484D02*
X10988872Y-9151008D01*
X10988872Y-9151008D02*
X10998396Y-9160531D01*
X10998396Y-9160531D02*
X11007920Y-9179579D01*
X11007920Y-9179579D02*
X11017444Y-9217674D01*
X11017444Y-9217674D02*
X11017444Y-9265293D01*
X11017444Y-9265293D02*
X11007920Y-9303389D01*
X11007920Y-9303389D02*
X10998396Y-9322436D01*
X10998396Y-9322436D02*
X10988872Y-9331960D01*
X10988872Y-9331960D02*
X10969825Y-9341484D01*
X10969825Y-9341484D02*
X10950777Y-9341484D01*
X10950777Y-9341484D02*
X10931729Y-9331960D01*
X10931729Y-9331960D02*
X10922206Y-9322436D01*
X10922206Y-9322436D02*
X10912682Y-9303389D01*
X10912682Y-9303389D02*
X10903158Y-9265293D01*
X10903158Y-9265293D02*
X10903158Y-9217674D01*
X10903158Y-9217674D02*
X10912682Y-9179579D01*
X10912682Y-9179579D02*
X10922206Y-9160531D01*
X10922206Y-9160531D02*
X10931729Y-9151008D01*
X10931729Y-9151008D02*
X10950777Y-9141484D01*
X11093634Y-9141484D02*
X11093634Y-9179579D01*
X11169825Y-9141484D02*
X11169825Y-9179579D01*
X11465063Y-9417674D02*
X11455539Y-9408150D01*
X11455539Y-9408150D02*
X11436491Y-9379579D01*
X11436491Y-9379579D02*
X11426968Y-9360531D01*
X11426968Y-9360531D02*
X11417444Y-9331960D01*
X11417444Y-9331960D02*
X11407920Y-9284341D01*
X11407920Y-9284341D02*
X11407920Y-9246246D01*
X11407920Y-9246246D02*
X11417444Y-9198627D01*
X11417444Y-9198627D02*
X11426968Y-9170055D01*
X11426968Y-9170055D02*
X11436491Y-9151008D01*
X11436491Y-9151008D02*
X11455539Y-9122436D01*
X11455539Y-9122436D02*
X11465063Y-9112912D01*
X11636491Y-9141484D02*
X11541253Y-9141484D01*
X11541253Y-9141484D02*
X11531729Y-9236722D01*
X11531729Y-9236722D02*
X11541253Y-9227198D01*
X11541253Y-9227198D02*
X11560301Y-9217674D01*
X11560301Y-9217674D02*
X11607920Y-9217674D01*
X11607920Y-9217674D02*
X11626968Y-9227198D01*
X11626968Y-9227198D02*
X11636491Y-9236722D01*
X11636491Y-9236722D02*
X11646015Y-9255770D01*
X11646015Y-9255770D02*
X11646015Y-9303389D01*
X11646015Y-9303389D02*
X11636491Y-9322436D01*
X11636491Y-9322436D02*
X11626968Y-9331960D01*
X11626968Y-9331960D02*
X11607920Y-9341484D01*
X11607920Y-9341484D02*
X11560301Y-9341484D01*
X11560301Y-9341484D02*
X11541253Y-9331960D01*
X11541253Y-9331960D02*
X11531729Y-9322436D01*
X11884110Y-9341484D02*
X11884110Y-9141484D01*
X11969825Y-9341484D02*
X11969825Y-9236722D01*
X11969825Y-9236722D02*
X11960301Y-9217674D01*
X11960301Y-9217674D02*
X11941253Y-9208150D01*
X11941253Y-9208150D02*
X11912682Y-9208150D01*
X11912682Y-9208150D02*
X11893634Y-9217674D01*
X11893634Y-9217674D02*
X11884110Y-9227198D01*
X12093634Y-9341484D02*
X12074587Y-9331960D01*
X12074587Y-9331960D02*
X12065063Y-9322436D01*
X12065063Y-9322436D02*
X12055539Y-9303389D01*
X12055539Y-9303389D02*
X12055539Y-9246246D01*
X12055539Y-9246246D02*
X12065063Y-9227198D01*
X12065063Y-9227198D02*
X12074587Y-9217674D01*
X12074587Y-9217674D02*
X12093634Y-9208150D01*
X12093634Y-9208150D02*
X12122206Y-9208150D01*
X12122206Y-9208150D02*
X12141253Y-9217674D01*
X12141253Y-9217674D02*
X12150777Y-9227198D01*
X12150777Y-9227198D02*
X12160301Y-9246246D01*
X12160301Y-9246246D02*
X12160301Y-9303389D01*
X12160301Y-9303389D02*
X12150777Y-9322436D01*
X12150777Y-9322436D02*
X12141253Y-9331960D01*
X12141253Y-9331960D02*
X12122206Y-9341484D01*
X12122206Y-9341484D02*
X12093634Y-9341484D01*
X12274587Y-9341484D02*
X12255539Y-9331960D01*
X12255539Y-9331960D02*
X12246015Y-9312912D01*
X12246015Y-9312912D02*
X12246015Y-9141484D01*
X12426968Y-9331960D02*
X12407920Y-9341484D01*
X12407920Y-9341484D02*
X12369825Y-9341484D01*
X12369825Y-9341484D02*
X12350777Y-9331960D01*
X12350777Y-9331960D02*
X12341253Y-9312912D01*
X12341253Y-9312912D02*
X12341253Y-9236722D01*
X12341253Y-9236722D02*
X12350777Y-9217674D01*
X12350777Y-9217674D02*
X12369825Y-9208150D01*
X12369825Y-9208150D02*
X12407920Y-9208150D01*
X12407920Y-9208150D02*
X12426968Y-9217674D01*
X12426968Y-9217674D02*
X12436491Y-9236722D01*
X12436491Y-9236722D02*
X12436491Y-9255770D01*
X12436491Y-9255770D02*
X12341253Y-9274817D01*
X12512682Y-9331960D02*
X12531730Y-9341484D01*
X12531730Y-9341484D02*
X12569825Y-9341484D01*
X12569825Y-9341484D02*
X12588872Y-9331960D01*
X12588872Y-9331960D02*
X12598396Y-9312912D01*
X12598396Y-9312912D02*
X12598396Y-9303389D01*
X12598396Y-9303389D02*
X12588872Y-9284341D01*
X12588872Y-9284341D02*
X12569825Y-9274817D01*
X12569825Y-9274817D02*
X12541253Y-9274817D01*
X12541253Y-9274817D02*
X12522206Y-9265293D01*
X12522206Y-9265293D02*
X12512682Y-9246246D01*
X12512682Y-9246246D02*
X12512682Y-9236722D01*
X12512682Y-9236722D02*
X12522206Y-9217674D01*
X12522206Y-9217674D02*
X12541253Y-9208150D01*
X12541253Y-9208150D02*
X12569825Y-9208150D01*
X12569825Y-9208150D02*
X12588872Y-9217674D01*
X12665063Y-9417674D02*
X12674587Y-9408150D01*
X12674587Y-9408150D02*
X12693634Y-9379579D01*
X12693634Y-9379579D02*
X12703158Y-9360531D01*
X12703158Y-9360531D02*
X12712682Y-9331960D01*
X12712682Y-9331960D02*
X12722206Y-9284341D01*
X12722206Y-9284341D02*
X12722206Y-9246246D01*
X12722206Y-9246246D02*
X12712682Y-9198627D01*
X12712682Y-9198627D02*
X12703158Y-9170055D01*
X12703158Y-9170055D02*
X12693634Y-9151008D01*
X12693634Y-9151008D02*
X12674587Y-9122436D01*
X12674587Y-9122436D02*
X12665063Y-9112912D01*
X13026968Y-9417674D02*
X13017444Y-9408150D01*
X13017444Y-9408150D02*
X12998396Y-9379579D01*
X12998396Y-9379579D02*
X12988872Y-9360531D01*
X12988872Y-9360531D02*
X12979349Y-9331960D01*
X12979349Y-9331960D02*
X12969825Y-9284341D01*
X12969825Y-9284341D02*
X12969825Y-9246246D01*
X12969825Y-9246246D02*
X12979349Y-9198627D01*
X12979349Y-9198627D02*
X12988872Y-9170055D01*
X12988872Y-9170055D02*
X12998396Y-9151008D01*
X12998396Y-9151008D02*
X13017444Y-9122436D01*
X13017444Y-9122436D02*
X13026968Y-9112912D01*
X13103158Y-9208150D02*
X13103158Y-9341484D01*
X13103158Y-9227198D02*
X13112682Y-9217674D01*
X13112682Y-9217674D02*
X13131730Y-9208150D01*
X13131730Y-9208150D02*
X13160301Y-9208150D01*
X13160301Y-9208150D02*
X13179349Y-9217674D01*
X13179349Y-9217674D02*
X13188872Y-9236722D01*
X13188872Y-9236722D02*
X13188872Y-9341484D01*
X13312682Y-9341484D02*
X13293634Y-9331960D01*
X13293634Y-9331960D02*
X13284111Y-9322436D01*
X13284111Y-9322436D02*
X13274587Y-9303389D01*
X13274587Y-9303389D02*
X13274587Y-9246246D01*
X13274587Y-9246246D02*
X13284111Y-9227198D01*
X13284111Y-9227198D02*
X13293634Y-9217674D01*
X13293634Y-9217674D02*
X13312682Y-9208150D01*
X13312682Y-9208150D02*
X13341253Y-9208150D01*
X13341253Y-9208150D02*
X13360301Y-9217674D01*
X13360301Y-9217674D02*
X13369825Y-9227198D01*
X13369825Y-9227198D02*
X13379349Y-9246246D01*
X13379349Y-9246246D02*
X13379349Y-9303389D01*
X13379349Y-9303389D02*
X13369825Y-9322436D01*
X13369825Y-9322436D02*
X13360301Y-9331960D01*
X13360301Y-9331960D02*
X13341253Y-9341484D01*
X13341253Y-9341484D02*
X13312682Y-9341484D01*
X13436492Y-9208150D02*
X13512682Y-9208150D01*
X13465063Y-9141484D02*
X13465063Y-9312912D01*
X13465063Y-9312912D02*
X13474587Y-9331960D01*
X13474587Y-9331960D02*
X13493634Y-9341484D01*
X13493634Y-9341484D02*
X13512682Y-9341484D01*
X13731730Y-9208150D02*
X13731730Y-9408150D01*
X13731730Y-9217674D02*
X13750777Y-9208150D01*
X13750777Y-9208150D02*
X13788873Y-9208150D01*
X13788873Y-9208150D02*
X13807920Y-9217674D01*
X13807920Y-9217674D02*
X13817444Y-9227198D01*
X13817444Y-9227198D02*
X13826968Y-9246246D01*
X13826968Y-9246246D02*
X13826968Y-9303389D01*
X13826968Y-9303389D02*
X13817444Y-9322436D01*
X13817444Y-9322436D02*
X13807920Y-9331960D01*
X13807920Y-9331960D02*
X13788873Y-9341484D01*
X13788873Y-9341484D02*
X13750777Y-9341484D01*
X13750777Y-9341484D02*
X13731730Y-9331960D01*
X13941253Y-9341484D02*
X13922206Y-9331960D01*
X13922206Y-9331960D02*
X13912682Y-9312912D01*
X13912682Y-9312912D02*
X13912682Y-9141484D01*
X14103158Y-9341484D02*
X14103158Y-9236722D01*
X14103158Y-9236722D02*
X14093634Y-9217674D01*
X14093634Y-9217674D02*
X14074587Y-9208150D01*
X14074587Y-9208150D02*
X14036492Y-9208150D01*
X14036492Y-9208150D02*
X14017444Y-9217674D01*
X14103158Y-9331960D02*
X14084111Y-9341484D01*
X14084111Y-9341484D02*
X14036492Y-9341484D01*
X14036492Y-9341484D02*
X14017444Y-9331960D01*
X14017444Y-9331960D02*
X14007920Y-9312912D01*
X14007920Y-9312912D02*
X14007920Y-9293865D01*
X14007920Y-9293865D02*
X14017444Y-9274817D01*
X14017444Y-9274817D02*
X14036492Y-9265293D01*
X14036492Y-9265293D02*
X14084111Y-9265293D01*
X14084111Y-9265293D02*
X14103158Y-9255770D01*
X14169825Y-9208150D02*
X14246015Y-9208150D01*
X14198396Y-9141484D02*
X14198396Y-9312912D01*
X14198396Y-9312912D02*
X14207920Y-9331960D01*
X14207920Y-9331960D02*
X14226968Y-9341484D01*
X14226968Y-9341484D02*
X14246015Y-9341484D01*
X14388873Y-9331960D02*
X14369825Y-9341484D01*
X14369825Y-9341484D02*
X14331730Y-9341484D01*
X14331730Y-9341484D02*
X14312682Y-9331960D01*
X14312682Y-9331960D02*
X14303158Y-9312912D01*
X14303158Y-9312912D02*
X14303158Y-9236722D01*
X14303158Y-9236722D02*
X14312682Y-9217674D01*
X14312682Y-9217674D02*
X14331730Y-9208150D01*
X14331730Y-9208150D02*
X14369825Y-9208150D01*
X14369825Y-9208150D02*
X14388873Y-9217674D01*
X14388873Y-9217674D02*
X14398396Y-9236722D01*
X14398396Y-9236722D02*
X14398396Y-9255770D01*
X14398396Y-9255770D02*
X14303158Y-9274817D01*
X14569825Y-9341484D02*
X14569825Y-9141484D01*
X14569825Y-9331960D02*
X14550777Y-9341484D01*
X14550777Y-9341484D02*
X14512682Y-9341484D01*
X14512682Y-9341484D02*
X14493634Y-9331960D01*
X14493634Y-9331960D02*
X14484111Y-9322436D01*
X14484111Y-9322436D02*
X14474587Y-9303389D01*
X14474587Y-9303389D02*
X14474587Y-9246246D01*
X14474587Y-9246246D02*
X14484111Y-9227198D01*
X14484111Y-9227198D02*
X14493634Y-9217674D01*
X14493634Y-9217674D02*
X14512682Y-9208150D01*
X14512682Y-9208150D02*
X14550777Y-9208150D01*
X14550777Y-9208150D02*
X14569825Y-9217674D01*
X14646015Y-9417674D02*
X14655539Y-9408150D01*
X14655539Y-9408150D02*
X14674587Y-9379579D01*
X14674587Y-9379579D02*
X14684111Y-9360531D01*
X14684111Y-9360531D02*
X14693634Y-9331960D01*
X14693634Y-9331960D02*
X14703158Y-9284341D01*
X14703158Y-9284341D02*
X14703158Y-9246246D01*
X14703158Y-9246246D02*
X14693634Y-9198627D01*
X14693634Y-9198627D02*
X14684111Y-9170055D01*
X14684111Y-9170055D02*
X14674587Y-9151008D01*
X14674587Y-9151008D02*
X14655539Y-9122436D01*
X14655539Y-9122436D02*
X14646015Y-9112912D01*
D12*
X7890000Y-9514000D02*
G75*
G02*
X7719820Y-9514000I-85090J0D01*
G01*
X7719820Y-9514000D02*
G75*
G02*
X7890000Y-9514000I85090J0D01*
G01*
D10*
X8255539Y-9605484D02*
X8141253Y-9605484D01*
X8198396Y-9605484D02*
X8198396Y-9405484D01*
X8198396Y-9405484D02*
X8179348Y-9434055D01*
X8179348Y-9434055D02*
X8160301Y-9453103D01*
X8160301Y-9453103D02*
X8141253Y-9462627D01*
X8341253Y-9586436D02*
X8350777Y-9595960D01*
X8350777Y-9595960D02*
X8341253Y-9605484D01*
X8341253Y-9605484D02*
X8331729Y-9595960D01*
X8331729Y-9595960D02*
X8341253Y-9586436D01*
X8341253Y-9586436D02*
X8341253Y-9605484D01*
X8417444Y-9405484D02*
X8550777Y-9405484D01*
X8550777Y-9405484D02*
X8465063Y-9605484D01*
X8665063Y-9405484D02*
X8684110Y-9405484D01*
X8684110Y-9405484D02*
X8703158Y-9415008D01*
X8703158Y-9415008D02*
X8712682Y-9424531D01*
X8712682Y-9424531D02*
X8722205Y-9443579D01*
X8722205Y-9443579D02*
X8731729Y-9481674D01*
X8731729Y-9481674D02*
X8731729Y-9529293D01*
X8731729Y-9529293D02*
X8722205Y-9567389D01*
X8722205Y-9567389D02*
X8712682Y-9586436D01*
X8712682Y-9586436D02*
X8703158Y-9595960D01*
X8703158Y-9595960D02*
X8684110Y-9605484D01*
X8684110Y-9605484D02*
X8665063Y-9605484D01*
X8665063Y-9605484D02*
X8646015Y-9595960D01*
X8646015Y-9595960D02*
X8636491Y-9586436D01*
X8636491Y-9586436D02*
X8626967Y-9567389D01*
X8626967Y-9567389D02*
X8617444Y-9529293D01*
X8617444Y-9529293D02*
X8617444Y-9481674D01*
X8617444Y-9481674D02*
X8626967Y-9443579D01*
X8626967Y-9443579D02*
X8636491Y-9424531D01*
X8636491Y-9424531D02*
X8646015Y-9415008D01*
X8646015Y-9415008D02*
X8665063Y-9405484D01*
X8807920Y-9424531D02*
X8817444Y-9415008D01*
X8817444Y-9415008D02*
X8836491Y-9405484D01*
X8836491Y-9405484D02*
X8884110Y-9405484D01*
X8884110Y-9405484D02*
X8903158Y-9415008D01*
X8903158Y-9415008D02*
X8912682Y-9424531D01*
X8912682Y-9424531D02*
X8922205Y-9443579D01*
X8922205Y-9443579D02*
X8922205Y-9462627D01*
X8922205Y-9462627D02*
X8912682Y-9491198D01*
X8912682Y-9491198D02*
X8798396Y-9605484D01*
X8798396Y-9605484D02*
X8922205Y-9605484D01*
X9007920Y-9605484D02*
X9007920Y-9472150D01*
X9007920Y-9491198D02*
X9017444Y-9481674D01*
X9017444Y-9481674D02*
X9036491Y-9472150D01*
X9036491Y-9472150D02*
X9065063Y-9472150D01*
X9065063Y-9472150D02*
X9084110Y-9481674D01*
X9084110Y-9481674D02*
X9093634Y-9500722D01*
X9093634Y-9500722D02*
X9093634Y-9605484D01*
X9093634Y-9500722D02*
X9103158Y-9481674D01*
X9103158Y-9481674D02*
X9122205Y-9472150D01*
X9122205Y-9472150D02*
X9150777Y-9472150D01*
X9150777Y-9472150D02*
X9169825Y-9481674D01*
X9169825Y-9481674D02*
X9179348Y-9500722D01*
X9179348Y-9500722D02*
X9179348Y-9605484D01*
X9274586Y-9605484D02*
X9274586Y-9472150D01*
X9274586Y-9491198D02*
X9284110Y-9481674D01*
X9284110Y-9481674D02*
X9303158Y-9472150D01*
X9303158Y-9472150D02*
X9331729Y-9472150D01*
X9331729Y-9472150D02*
X9350777Y-9481674D01*
X9350777Y-9481674D02*
X9360301Y-9500722D01*
X9360301Y-9500722D02*
X9360301Y-9605484D01*
X9360301Y-9500722D02*
X9369825Y-9481674D01*
X9369825Y-9481674D02*
X9388872Y-9472150D01*
X9388872Y-9472150D02*
X9417444Y-9472150D01*
X9417444Y-9472150D02*
X9436491Y-9481674D01*
X9436491Y-9481674D02*
X9446015Y-9500722D01*
X9446015Y-9500722D02*
X9446015Y-9605484D01*
X9836491Y-9395960D02*
X9665063Y-9653103D01*
X10093634Y-9405484D02*
X10112682Y-9405484D01*
X10112682Y-9405484D02*
X10131729Y-9415008D01*
X10131729Y-9415008D02*
X10141253Y-9424531D01*
X10141253Y-9424531D02*
X10150777Y-9443579D01*
X10150777Y-9443579D02*
X10160301Y-9481674D01*
X10160301Y-9481674D02*
X10160301Y-9529293D01*
X10160301Y-9529293D02*
X10150777Y-9567389D01*
X10150777Y-9567389D02*
X10141253Y-9586436D01*
X10141253Y-9586436D02*
X10131729Y-9595960D01*
X10131729Y-9595960D02*
X10112682Y-9605484D01*
X10112682Y-9605484D02*
X10093634Y-9605484D01*
X10093634Y-9605484D02*
X10074587Y-9595960D01*
X10074587Y-9595960D02*
X10065063Y-9586436D01*
X10065063Y-9586436D02*
X10055539Y-9567389D01*
X10055539Y-9567389D02*
X10046015Y-9529293D01*
X10046015Y-9529293D02*
X10046015Y-9481674D01*
X10046015Y-9481674D02*
X10055539Y-9443579D01*
X10055539Y-9443579D02*
X10065063Y-9424531D01*
X10065063Y-9424531D02*
X10074587Y-9415008D01*
X10074587Y-9415008D02*
X10093634Y-9405484D01*
X10246015Y-9586436D02*
X10255539Y-9595960D01*
X10255539Y-9595960D02*
X10246015Y-9605484D01*
X10246015Y-9605484D02*
X10236491Y-9595960D01*
X10236491Y-9595960D02*
X10246015Y-9586436D01*
X10246015Y-9586436D02*
X10246015Y-9605484D01*
X10379348Y-9405484D02*
X10398396Y-9405484D01*
X10398396Y-9405484D02*
X10417444Y-9415008D01*
X10417444Y-9415008D02*
X10426968Y-9424531D01*
X10426968Y-9424531D02*
X10436491Y-9443579D01*
X10436491Y-9443579D02*
X10446015Y-9481674D01*
X10446015Y-9481674D02*
X10446015Y-9529293D01*
X10446015Y-9529293D02*
X10436491Y-9567389D01*
X10436491Y-9567389D02*
X10426968Y-9586436D01*
X10426968Y-9586436D02*
X10417444Y-9595960D01*
X10417444Y-9595960D02*
X10398396Y-9605484D01*
X10398396Y-9605484D02*
X10379348Y-9605484D01*
X10379348Y-9605484D02*
X10360301Y-9595960D01*
X10360301Y-9595960D02*
X10350777Y-9586436D01*
X10350777Y-9586436D02*
X10341253Y-9567389D01*
X10341253Y-9567389D02*
X10331729Y-9529293D01*
X10331729Y-9529293D02*
X10331729Y-9481674D01*
X10331729Y-9481674D02*
X10341253Y-9443579D01*
X10341253Y-9443579D02*
X10350777Y-9424531D01*
X10350777Y-9424531D02*
X10360301Y-9415008D01*
X10360301Y-9415008D02*
X10379348Y-9405484D01*
X10617444Y-9405484D02*
X10579348Y-9405484D01*
X10579348Y-9405484D02*
X10560301Y-9415008D01*
X10560301Y-9415008D02*
X10550777Y-9424531D01*
X10550777Y-9424531D02*
X10531729Y-9453103D01*
X10531729Y-9453103D02*
X10522206Y-9491198D01*
X10522206Y-9491198D02*
X10522206Y-9567389D01*
X10522206Y-9567389D02*
X10531729Y-9586436D01*
X10531729Y-9586436D02*
X10541253Y-9595960D01*
X10541253Y-9595960D02*
X10560301Y-9605484D01*
X10560301Y-9605484D02*
X10598396Y-9605484D01*
X10598396Y-9605484D02*
X10617444Y-9595960D01*
X10617444Y-9595960D02*
X10626968Y-9586436D01*
X10626968Y-9586436D02*
X10636491Y-9567389D01*
X10636491Y-9567389D02*
X10636491Y-9519770D01*
X10636491Y-9519770D02*
X10626968Y-9500722D01*
X10626968Y-9500722D02*
X10617444Y-9491198D01*
X10617444Y-9491198D02*
X10598396Y-9481674D01*
X10598396Y-9481674D02*
X10560301Y-9481674D01*
X10560301Y-9481674D02*
X10541253Y-9491198D01*
X10541253Y-9491198D02*
X10531729Y-9500722D01*
X10531729Y-9500722D02*
X10522206Y-9519770D01*
X10703158Y-9405484D02*
X10836491Y-9405484D01*
X10836491Y-9405484D02*
X10750777Y-9605484D01*
X10950777Y-9405484D02*
X10969825Y-9405484D01*
X10969825Y-9405484D02*
X10988872Y-9415008D01*
X10988872Y-9415008D02*
X10998396Y-9424531D01*
X10998396Y-9424531D02*
X11007920Y-9443579D01*
X11007920Y-9443579D02*
X11017444Y-9481674D01*
X11017444Y-9481674D02*
X11017444Y-9529293D01*
X11017444Y-9529293D02*
X11007920Y-9567389D01*
X11007920Y-9567389D02*
X10998396Y-9586436D01*
X10998396Y-9586436D02*
X10988872Y-9595960D01*
X10988872Y-9595960D02*
X10969825Y-9605484D01*
X10969825Y-9605484D02*
X10950777Y-9605484D01*
X10950777Y-9605484D02*
X10931729Y-9595960D01*
X10931729Y-9595960D02*
X10922206Y-9586436D01*
X10922206Y-9586436D02*
X10912682Y-9567389D01*
X10912682Y-9567389D02*
X10903158Y-9529293D01*
X10903158Y-9529293D02*
X10903158Y-9481674D01*
X10903158Y-9481674D02*
X10912682Y-9443579D01*
X10912682Y-9443579D02*
X10922206Y-9424531D01*
X10922206Y-9424531D02*
X10931729Y-9415008D01*
X10931729Y-9415008D02*
X10950777Y-9405484D01*
X11093634Y-9405484D02*
X11093634Y-9443579D01*
X11169825Y-9405484D02*
X11169825Y-9443579D01*
X11465063Y-9681674D02*
X11455539Y-9672150D01*
X11455539Y-9672150D02*
X11436491Y-9643579D01*
X11436491Y-9643579D02*
X11426968Y-9624531D01*
X11426968Y-9624531D02*
X11417444Y-9595960D01*
X11417444Y-9595960D02*
X11407920Y-9548341D01*
X11407920Y-9548341D02*
X11407920Y-9510246D01*
X11407920Y-9510246D02*
X11417444Y-9462627D01*
X11417444Y-9462627D02*
X11426968Y-9434055D01*
X11426968Y-9434055D02*
X11436491Y-9415008D01*
X11436491Y-9415008D02*
X11455539Y-9386436D01*
X11455539Y-9386436D02*
X11465063Y-9376912D01*
X11646015Y-9605484D02*
X11531729Y-9605484D01*
X11588872Y-9605484D02*
X11588872Y-9405484D01*
X11588872Y-9405484D02*
X11569825Y-9434055D01*
X11569825Y-9434055D02*
X11550777Y-9453103D01*
X11550777Y-9453103D02*
X11531729Y-9462627D01*
X11769825Y-9405484D02*
X11788872Y-9405484D01*
X11788872Y-9405484D02*
X11807920Y-9415008D01*
X11807920Y-9415008D02*
X11817444Y-9424531D01*
X11817444Y-9424531D02*
X11826968Y-9443579D01*
X11826968Y-9443579D02*
X11836491Y-9481674D01*
X11836491Y-9481674D02*
X11836491Y-9529293D01*
X11836491Y-9529293D02*
X11826968Y-9567389D01*
X11826968Y-9567389D02*
X11817444Y-9586436D01*
X11817444Y-9586436D02*
X11807920Y-9595960D01*
X11807920Y-9595960D02*
X11788872Y-9605484D01*
X11788872Y-9605484D02*
X11769825Y-9605484D01*
X11769825Y-9605484D02*
X11750777Y-9595960D01*
X11750777Y-9595960D02*
X11741253Y-9586436D01*
X11741253Y-9586436D02*
X11731729Y-9567389D01*
X11731729Y-9567389D02*
X11722206Y-9529293D01*
X11722206Y-9529293D02*
X11722206Y-9481674D01*
X11722206Y-9481674D02*
X11731729Y-9443579D01*
X11731729Y-9443579D02*
X11741253Y-9424531D01*
X11741253Y-9424531D02*
X11750777Y-9415008D01*
X11750777Y-9415008D02*
X11769825Y-9405484D01*
X12074587Y-9605484D02*
X12074587Y-9405484D01*
X12160301Y-9605484D02*
X12160301Y-9500722D01*
X12160301Y-9500722D02*
X12150777Y-9481674D01*
X12150777Y-9481674D02*
X12131730Y-9472150D01*
X12131730Y-9472150D02*
X12103158Y-9472150D01*
X12103158Y-9472150D02*
X12084110Y-9481674D01*
X12084110Y-9481674D02*
X12074587Y-9491198D01*
X12284110Y-9605484D02*
X12265063Y-9595960D01*
X12265063Y-9595960D02*
X12255539Y-9586436D01*
X12255539Y-9586436D02*
X12246015Y-9567389D01*
X12246015Y-9567389D02*
X12246015Y-9510246D01*
X12246015Y-9510246D02*
X12255539Y-9491198D01*
X12255539Y-9491198D02*
X12265063Y-9481674D01*
X12265063Y-9481674D02*
X12284110Y-9472150D01*
X12284110Y-9472150D02*
X12312682Y-9472150D01*
X12312682Y-9472150D02*
X12331730Y-9481674D01*
X12331730Y-9481674D02*
X12341253Y-9491198D01*
X12341253Y-9491198D02*
X12350777Y-9510246D01*
X12350777Y-9510246D02*
X12350777Y-9567389D01*
X12350777Y-9567389D02*
X12341253Y-9586436D01*
X12341253Y-9586436D02*
X12331730Y-9595960D01*
X12331730Y-9595960D02*
X12312682Y-9605484D01*
X12312682Y-9605484D02*
X12284110Y-9605484D01*
X12465063Y-9605484D02*
X12446015Y-9595960D01*
X12446015Y-9595960D02*
X12436491Y-9576912D01*
X12436491Y-9576912D02*
X12436491Y-9405484D01*
X12617444Y-9595960D02*
X12598396Y-9605484D01*
X12598396Y-9605484D02*
X12560301Y-9605484D01*
X12560301Y-9605484D02*
X12541253Y-9595960D01*
X12541253Y-9595960D02*
X12531730Y-9576912D01*
X12531730Y-9576912D02*
X12531730Y-9500722D01*
X12531730Y-9500722D02*
X12541253Y-9481674D01*
X12541253Y-9481674D02*
X12560301Y-9472150D01*
X12560301Y-9472150D02*
X12598396Y-9472150D01*
X12598396Y-9472150D02*
X12617444Y-9481674D01*
X12617444Y-9481674D02*
X12626968Y-9500722D01*
X12626968Y-9500722D02*
X12626968Y-9519770D01*
X12626968Y-9519770D02*
X12531730Y-9538817D01*
X12703158Y-9595960D02*
X12722206Y-9605484D01*
X12722206Y-9605484D02*
X12760301Y-9605484D01*
X12760301Y-9605484D02*
X12779349Y-9595960D01*
X12779349Y-9595960D02*
X12788872Y-9576912D01*
X12788872Y-9576912D02*
X12788872Y-9567389D01*
X12788872Y-9567389D02*
X12779349Y-9548341D01*
X12779349Y-9548341D02*
X12760301Y-9538817D01*
X12760301Y-9538817D02*
X12731730Y-9538817D01*
X12731730Y-9538817D02*
X12712682Y-9529293D01*
X12712682Y-9529293D02*
X12703158Y-9510246D01*
X12703158Y-9510246D02*
X12703158Y-9500722D01*
X12703158Y-9500722D02*
X12712682Y-9481674D01*
X12712682Y-9481674D02*
X12731730Y-9472150D01*
X12731730Y-9472150D02*
X12760301Y-9472150D01*
X12760301Y-9472150D02*
X12779349Y-9481674D01*
X12855539Y-9681674D02*
X12865063Y-9672150D01*
X12865063Y-9672150D02*
X12884111Y-9643579D01*
X12884111Y-9643579D02*
X12893634Y-9624531D01*
X12893634Y-9624531D02*
X12903158Y-9595960D01*
X12903158Y-9595960D02*
X12912682Y-9548341D01*
X12912682Y-9548341D02*
X12912682Y-9510246D01*
X12912682Y-9510246D02*
X12903158Y-9462627D01*
X12903158Y-9462627D02*
X12893634Y-9434055D01*
X12893634Y-9434055D02*
X12884111Y-9415008D01*
X12884111Y-9415008D02*
X12865063Y-9386436D01*
X12865063Y-9386436D02*
X12855539Y-9376912D01*
X13217444Y-9681674D02*
X13207920Y-9672150D01*
X13207920Y-9672150D02*
X13188872Y-9643579D01*
X13188872Y-9643579D02*
X13179349Y-9624531D01*
X13179349Y-9624531D02*
X13169825Y-9595960D01*
X13169825Y-9595960D02*
X13160301Y-9548341D01*
X13160301Y-9548341D02*
X13160301Y-9510246D01*
X13160301Y-9510246D02*
X13169825Y-9462627D01*
X13169825Y-9462627D02*
X13179349Y-9434055D01*
X13179349Y-9434055D02*
X13188872Y-9415008D01*
X13188872Y-9415008D02*
X13207920Y-9386436D01*
X13207920Y-9386436D02*
X13217444Y-9376912D01*
X13293634Y-9472150D02*
X13293634Y-9605484D01*
X13293634Y-9491198D02*
X13303158Y-9481674D01*
X13303158Y-9481674D02*
X13322206Y-9472150D01*
X13322206Y-9472150D02*
X13350777Y-9472150D01*
X13350777Y-9472150D02*
X13369825Y-9481674D01*
X13369825Y-9481674D02*
X13379349Y-9500722D01*
X13379349Y-9500722D02*
X13379349Y-9605484D01*
X13503158Y-9605484D02*
X13484111Y-9595960D01*
X13484111Y-9595960D02*
X13474587Y-9586436D01*
X13474587Y-9586436D02*
X13465063Y-9567389D01*
X13465063Y-9567389D02*
X13465063Y-9510246D01*
X13465063Y-9510246D02*
X13474587Y-9491198D01*
X13474587Y-9491198D02*
X13484111Y-9481674D01*
X13484111Y-9481674D02*
X13503158Y-9472150D01*
X13503158Y-9472150D02*
X13531730Y-9472150D01*
X13531730Y-9472150D02*
X13550777Y-9481674D01*
X13550777Y-9481674D02*
X13560301Y-9491198D01*
X13560301Y-9491198D02*
X13569825Y-9510246D01*
X13569825Y-9510246D02*
X13569825Y-9567389D01*
X13569825Y-9567389D02*
X13560301Y-9586436D01*
X13560301Y-9586436D02*
X13550777Y-9595960D01*
X13550777Y-9595960D02*
X13531730Y-9605484D01*
X13531730Y-9605484D02*
X13503158Y-9605484D01*
X13626968Y-9472150D02*
X13703158Y-9472150D01*
X13655539Y-9405484D02*
X13655539Y-9576912D01*
X13655539Y-9576912D02*
X13665063Y-9595960D01*
X13665063Y-9595960D02*
X13684111Y-9605484D01*
X13684111Y-9605484D02*
X13703158Y-9605484D01*
X13922206Y-9472150D02*
X13922206Y-9672150D01*
X13922206Y-9481674D02*
X13941253Y-9472150D01*
X13941253Y-9472150D02*
X13979349Y-9472150D01*
X13979349Y-9472150D02*
X13998396Y-9481674D01*
X13998396Y-9481674D02*
X14007920Y-9491198D01*
X14007920Y-9491198D02*
X14017444Y-9510246D01*
X14017444Y-9510246D02*
X14017444Y-9567389D01*
X14017444Y-9567389D02*
X14007920Y-9586436D01*
X14007920Y-9586436D02*
X13998396Y-9595960D01*
X13998396Y-9595960D02*
X13979349Y-9605484D01*
X13979349Y-9605484D02*
X13941253Y-9605484D01*
X13941253Y-9605484D02*
X13922206Y-9595960D01*
X14131730Y-9605484D02*
X14112682Y-9595960D01*
X14112682Y-9595960D02*
X14103158Y-9576912D01*
X14103158Y-9576912D02*
X14103158Y-9405484D01*
X14293634Y-9605484D02*
X14293634Y-9500722D01*
X14293634Y-9500722D02*
X14284111Y-9481674D01*
X14284111Y-9481674D02*
X14265063Y-9472150D01*
X14265063Y-9472150D02*
X14226968Y-9472150D01*
X14226968Y-9472150D02*
X14207920Y-9481674D01*
X14293634Y-9595960D02*
X14274587Y-9605484D01*
X14274587Y-9605484D02*
X14226968Y-9605484D01*
X14226968Y-9605484D02*
X14207920Y-9595960D01*
X14207920Y-9595960D02*
X14198396Y-9576912D01*
X14198396Y-9576912D02*
X14198396Y-9557865D01*
X14198396Y-9557865D02*
X14207920Y-9538817D01*
X14207920Y-9538817D02*
X14226968Y-9529293D01*
X14226968Y-9529293D02*
X14274587Y-9529293D01*
X14274587Y-9529293D02*
X14293634Y-9519770D01*
X14360301Y-9472150D02*
X14436492Y-9472150D01*
X14388873Y-9405484D02*
X14388873Y-9576912D01*
X14388873Y-9576912D02*
X14398396Y-9595960D01*
X14398396Y-9595960D02*
X14417444Y-9605484D01*
X14417444Y-9605484D02*
X14436492Y-9605484D01*
X14579349Y-9595960D02*
X14560301Y-9605484D01*
X14560301Y-9605484D02*
X14522206Y-9605484D01*
X14522206Y-9605484D02*
X14503158Y-9595960D01*
X14503158Y-9595960D02*
X14493634Y-9576912D01*
X14493634Y-9576912D02*
X14493634Y-9500722D01*
X14493634Y-9500722D02*
X14503158Y-9481674D01*
X14503158Y-9481674D02*
X14522206Y-9472150D01*
X14522206Y-9472150D02*
X14560301Y-9472150D01*
X14560301Y-9472150D02*
X14579349Y-9481674D01*
X14579349Y-9481674D02*
X14588873Y-9500722D01*
X14588873Y-9500722D02*
X14588873Y-9519770D01*
X14588873Y-9519770D02*
X14493634Y-9538817D01*
X14760301Y-9605484D02*
X14760301Y-9405484D01*
X14760301Y-9595960D02*
X14741254Y-9605484D01*
X14741254Y-9605484D02*
X14703158Y-9605484D01*
X14703158Y-9605484D02*
X14684111Y-9595960D01*
X14684111Y-9595960D02*
X14674587Y-9586436D01*
X14674587Y-9586436D02*
X14665063Y-9567389D01*
X14665063Y-9567389D02*
X14665063Y-9510246D01*
X14665063Y-9510246D02*
X14674587Y-9491198D01*
X14674587Y-9491198D02*
X14684111Y-9481674D01*
X14684111Y-9481674D02*
X14703158Y-9472150D01*
X14703158Y-9472150D02*
X14741254Y-9472150D01*
X14741254Y-9472150D02*
X14760301Y-9481674D01*
X14836492Y-9681674D02*
X14846015Y-9672150D01*
X14846015Y-9672150D02*
X14865063Y-9643579D01*
X14865063Y-9643579D02*
X14874587Y-9624531D01*
X14874587Y-9624531D02*
X14884111Y-9595960D01*
X14884111Y-9595960D02*
X14893634Y-9548341D01*
X14893634Y-9548341D02*
X14893634Y-9510246D01*
X14893634Y-9510246D02*
X14884111Y-9462627D01*
X14884111Y-9462627D02*
X14874587Y-9434055D01*
X14874587Y-9434055D02*
X14865063Y-9415008D01*
X14865063Y-9415008D02*
X14846015Y-9386436D01*
X14846015Y-9386436D02*
X14836492Y-9376912D01*
X7790000Y-9704180D02*
X7790000Y-9904180D01*
X7690000Y-9804180D02*
X7890000Y-9804180D01*
X8131729Y-9695664D02*
X8255539Y-9695664D01*
X8255539Y-9695664D02*
X8188872Y-9771854D01*
X8188872Y-9771854D02*
X8217443Y-9771854D01*
X8217443Y-9771854D02*
X8236491Y-9781378D01*
X8236491Y-9781378D02*
X8246015Y-9790902D01*
X8246015Y-9790902D02*
X8255539Y-9809950D01*
X8255539Y-9809950D02*
X8255539Y-9857569D01*
X8255539Y-9857569D02*
X8246015Y-9876616D01*
X8246015Y-9876616D02*
X8236491Y-9886140D01*
X8236491Y-9886140D02*
X8217443Y-9895664D01*
X8217443Y-9895664D02*
X8160301Y-9895664D01*
X8160301Y-9895664D02*
X8141253Y-9886140D01*
X8141253Y-9886140D02*
X8131729Y-9876616D01*
X8341253Y-9876616D02*
X8350777Y-9886140D01*
X8350777Y-9886140D02*
X8341253Y-9895664D01*
X8341253Y-9895664D02*
X8331729Y-9886140D01*
X8331729Y-9886140D02*
X8341253Y-9876616D01*
X8341253Y-9876616D02*
X8341253Y-9895664D01*
X8522205Y-9762330D02*
X8522205Y-9895664D01*
X8474586Y-9686140D02*
X8426967Y-9828997D01*
X8426967Y-9828997D02*
X8550777Y-9828997D01*
X8617444Y-9714711D02*
X8626967Y-9705188D01*
X8626967Y-9705188D02*
X8646015Y-9695664D01*
X8646015Y-9695664D02*
X8693634Y-9695664D01*
X8693634Y-9695664D02*
X8712682Y-9705188D01*
X8712682Y-9705188D02*
X8722205Y-9714711D01*
X8722205Y-9714711D02*
X8731729Y-9733759D01*
X8731729Y-9733759D02*
X8731729Y-9752807D01*
X8731729Y-9752807D02*
X8722205Y-9781378D01*
X8722205Y-9781378D02*
X8607920Y-9895664D01*
X8607920Y-9895664D02*
X8731729Y-9895664D01*
X8826967Y-9895664D02*
X8865063Y-9895664D01*
X8865063Y-9895664D02*
X8884110Y-9886140D01*
X8884110Y-9886140D02*
X8893634Y-9876616D01*
X8893634Y-9876616D02*
X8912682Y-9848045D01*
X8912682Y-9848045D02*
X8922205Y-9809950D01*
X8922205Y-9809950D02*
X8922205Y-9733759D01*
X8922205Y-9733759D02*
X8912682Y-9714711D01*
X8912682Y-9714711D02*
X8903158Y-9705188D01*
X8903158Y-9705188D02*
X8884110Y-9695664D01*
X8884110Y-9695664D02*
X8846015Y-9695664D01*
X8846015Y-9695664D02*
X8826967Y-9705188D01*
X8826967Y-9705188D02*
X8817444Y-9714711D01*
X8817444Y-9714711D02*
X8807920Y-9733759D01*
X8807920Y-9733759D02*
X8807920Y-9781378D01*
X8807920Y-9781378D02*
X8817444Y-9800426D01*
X8817444Y-9800426D02*
X8826967Y-9809950D01*
X8826967Y-9809950D02*
X8846015Y-9819473D01*
X8846015Y-9819473D02*
X8884110Y-9819473D01*
X8884110Y-9819473D02*
X8903158Y-9809950D01*
X8903158Y-9809950D02*
X8912682Y-9800426D01*
X8912682Y-9800426D02*
X8922205Y-9781378D01*
X9007920Y-9895664D02*
X9007920Y-9762330D01*
X9007920Y-9781378D02*
X9017444Y-9771854D01*
X9017444Y-9771854D02*
X9036491Y-9762330D01*
X9036491Y-9762330D02*
X9065063Y-9762330D01*
X9065063Y-9762330D02*
X9084110Y-9771854D01*
X9084110Y-9771854D02*
X9093634Y-9790902D01*
X9093634Y-9790902D02*
X9093634Y-9895664D01*
X9093634Y-9790902D02*
X9103158Y-9771854D01*
X9103158Y-9771854D02*
X9122205Y-9762330D01*
X9122205Y-9762330D02*
X9150777Y-9762330D01*
X9150777Y-9762330D02*
X9169825Y-9771854D01*
X9169825Y-9771854D02*
X9179348Y-9790902D01*
X9179348Y-9790902D02*
X9179348Y-9895664D01*
X9274586Y-9895664D02*
X9274586Y-9762330D01*
X9274586Y-9781378D02*
X9284110Y-9771854D01*
X9284110Y-9771854D02*
X9303158Y-9762330D01*
X9303158Y-9762330D02*
X9331729Y-9762330D01*
X9331729Y-9762330D02*
X9350777Y-9771854D01*
X9350777Y-9771854D02*
X9360301Y-9790902D01*
X9360301Y-9790902D02*
X9360301Y-9895664D01*
X9360301Y-9790902D02*
X9369825Y-9771854D01*
X9369825Y-9771854D02*
X9388872Y-9762330D01*
X9388872Y-9762330D02*
X9417444Y-9762330D01*
X9417444Y-9762330D02*
X9436491Y-9771854D01*
X9436491Y-9771854D02*
X9446015Y-9790902D01*
X9446015Y-9790902D02*
X9446015Y-9895664D01*
X9836491Y-9686140D02*
X9665063Y-9943283D01*
X10093634Y-9695664D02*
X10112682Y-9695664D01*
X10112682Y-9695664D02*
X10131729Y-9705188D01*
X10131729Y-9705188D02*
X10141253Y-9714711D01*
X10141253Y-9714711D02*
X10150777Y-9733759D01*
X10150777Y-9733759D02*
X10160301Y-9771854D01*
X10160301Y-9771854D02*
X10160301Y-9819473D01*
X10160301Y-9819473D02*
X10150777Y-9857569D01*
X10150777Y-9857569D02*
X10141253Y-9876616D01*
X10141253Y-9876616D02*
X10131729Y-9886140D01*
X10131729Y-9886140D02*
X10112682Y-9895664D01*
X10112682Y-9895664D02*
X10093634Y-9895664D01*
X10093634Y-9895664D02*
X10074587Y-9886140D01*
X10074587Y-9886140D02*
X10065063Y-9876616D01*
X10065063Y-9876616D02*
X10055539Y-9857569D01*
X10055539Y-9857569D02*
X10046015Y-9819473D01*
X10046015Y-9819473D02*
X10046015Y-9771854D01*
X10046015Y-9771854D02*
X10055539Y-9733759D01*
X10055539Y-9733759D02*
X10065063Y-9714711D01*
X10065063Y-9714711D02*
X10074587Y-9705188D01*
X10074587Y-9705188D02*
X10093634Y-9695664D01*
X10246015Y-9876616D02*
X10255539Y-9886140D01*
X10255539Y-9886140D02*
X10246015Y-9895664D01*
X10246015Y-9895664D02*
X10236491Y-9886140D01*
X10236491Y-9886140D02*
X10246015Y-9876616D01*
X10246015Y-9876616D02*
X10246015Y-9895664D01*
X10446015Y-9895664D02*
X10331729Y-9895664D01*
X10388872Y-9895664D02*
X10388872Y-9695664D01*
X10388872Y-9695664D02*
X10369825Y-9724235D01*
X10369825Y-9724235D02*
X10350777Y-9743283D01*
X10350777Y-9743283D02*
X10331729Y-9752807D01*
X10512682Y-9695664D02*
X10636491Y-9695664D01*
X10636491Y-9695664D02*
X10569825Y-9771854D01*
X10569825Y-9771854D02*
X10598396Y-9771854D01*
X10598396Y-9771854D02*
X10617444Y-9781378D01*
X10617444Y-9781378D02*
X10626968Y-9790902D01*
X10626968Y-9790902D02*
X10636491Y-9809950D01*
X10636491Y-9809950D02*
X10636491Y-9857569D01*
X10636491Y-9857569D02*
X10626968Y-9876616D01*
X10626968Y-9876616D02*
X10617444Y-9886140D01*
X10617444Y-9886140D02*
X10598396Y-9895664D01*
X10598396Y-9895664D02*
X10541253Y-9895664D01*
X10541253Y-9895664D02*
X10522206Y-9886140D01*
X10522206Y-9886140D02*
X10512682Y-9876616D01*
X10817444Y-9695664D02*
X10722206Y-9695664D01*
X10722206Y-9695664D02*
X10712682Y-9790902D01*
X10712682Y-9790902D02*
X10722206Y-9781378D01*
X10722206Y-9781378D02*
X10741253Y-9771854D01*
X10741253Y-9771854D02*
X10788872Y-9771854D01*
X10788872Y-9771854D02*
X10807920Y-9781378D01*
X10807920Y-9781378D02*
X10817444Y-9790902D01*
X10817444Y-9790902D02*
X10826968Y-9809950D01*
X10826968Y-9809950D02*
X10826968Y-9857569D01*
X10826968Y-9857569D02*
X10817444Y-9876616D01*
X10817444Y-9876616D02*
X10807920Y-9886140D01*
X10807920Y-9886140D02*
X10788872Y-9895664D01*
X10788872Y-9895664D02*
X10741253Y-9895664D01*
X10741253Y-9895664D02*
X10722206Y-9886140D01*
X10722206Y-9886140D02*
X10712682Y-9876616D01*
X10950777Y-9695664D02*
X10969825Y-9695664D01*
X10969825Y-9695664D02*
X10988872Y-9705188D01*
X10988872Y-9705188D02*
X10998396Y-9714711D01*
X10998396Y-9714711D02*
X11007920Y-9733759D01*
X11007920Y-9733759D02*
X11017444Y-9771854D01*
X11017444Y-9771854D02*
X11017444Y-9819473D01*
X11017444Y-9819473D02*
X11007920Y-9857569D01*
X11007920Y-9857569D02*
X10998396Y-9876616D01*
X10998396Y-9876616D02*
X10988872Y-9886140D01*
X10988872Y-9886140D02*
X10969825Y-9895664D01*
X10969825Y-9895664D02*
X10950777Y-9895664D01*
X10950777Y-9895664D02*
X10931729Y-9886140D01*
X10931729Y-9886140D02*
X10922206Y-9876616D01*
X10922206Y-9876616D02*
X10912682Y-9857569D01*
X10912682Y-9857569D02*
X10903158Y-9819473D01*
X10903158Y-9819473D02*
X10903158Y-9771854D01*
X10903158Y-9771854D02*
X10912682Y-9733759D01*
X10912682Y-9733759D02*
X10922206Y-9714711D01*
X10922206Y-9714711D02*
X10931729Y-9705188D01*
X10931729Y-9705188D02*
X10950777Y-9695664D01*
X11093634Y-9695664D02*
X11093634Y-9733759D01*
X11169825Y-9695664D02*
X11169825Y-9733759D01*
X11465063Y-9971854D02*
X11455539Y-9962330D01*
X11455539Y-9962330D02*
X11436491Y-9933759D01*
X11436491Y-9933759D02*
X11426968Y-9914711D01*
X11426968Y-9914711D02*
X11417444Y-9886140D01*
X11417444Y-9886140D02*
X11407920Y-9838521D01*
X11407920Y-9838521D02*
X11407920Y-9800426D01*
X11407920Y-9800426D02*
X11417444Y-9752807D01*
X11417444Y-9752807D02*
X11426968Y-9724235D01*
X11426968Y-9724235D02*
X11436491Y-9705188D01*
X11436491Y-9705188D02*
X11455539Y-9676616D01*
X11455539Y-9676616D02*
X11465063Y-9667092D01*
X11636491Y-9695664D02*
X11541253Y-9695664D01*
X11541253Y-9695664D02*
X11531729Y-9790902D01*
X11531729Y-9790902D02*
X11541253Y-9781378D01*
X11541253Y-9781378D02*
X11560301Y-9771854D01*
X11560301Y-9771854D02*
X11607920Y-9771854D01*
X11607920Y-9771854D02*
X11626968Y-9781378D01*
X11626968Y-9781378D02*
X11636491Y-9790902D01*
X11636491Y-9790902D02*
X11646015Y-9809950D01*
X11646015Y-9809950D02*
X11646015Y-9857569D01*
X11646015Y-9857569D02*
X11636491Y-9876616D01*
X11636491Y-9876616D02*
X11626968Y-9886140D01*
X11626968Y-9886140D02*
X11607920Y-9895664D01*
X11607920Y-9895664D02*
X11560301Y-9895664D01*
X11560301Y-9895664D02*
X11541253Y-9886140D01*
X11541253Y-9886140D02*
X11531729Y-9876616D01*
X11884110Y-9895664D02*
X11884110Y-9695664D01*
X11969825Y-9895664D02*
X11969825Y-9790902D01*
X11969825Y-9790902D02*
X11960301Y-9771854D01*
X11960301Y-9771854D02*
X11941253Y-9762330D01*
X11941253Y-9762330D02*
X11912682Y-9762330D01*
X11912682Y-9762330D02*
X11893634Y-9771854D01*
X11893634Y-9771854D02*
X11884110Y-9781378D01*
X12093634Y-9895664D02*
X12074587Y-9886140D01*
X12074587Y-9886140D02*
X12065063Y-9876616D01*
X12065063Y-9876616D02*
X12055539Y-9857569D01*
X12055539Y-9857569D02*
X12055539Y-9800426D01*
X12055539Y-9800426D02*
X12065063Y-9781378D01*
X12065063Y-9781378D02*
X12074587Y-9771854D01*
X12074587Y-9771854D02*
X12093634Y-9762330D01*
X12093634Y-9762330D02*
X12122206Y-9762330D01*
X12122206Y-9762330D02*
X12141253Y-9771854D01*
X12141253Y-9771854D02*
X12150777Y-9781378D01*
X12150777Y-9781378D02*
X12160301Y-9800426D01*
X12160301Y-9800426D02*
X12160301Y-9857569D01*
X12160301Y-9857569D02*
X12150777Y-9876616D01*
X12150777Y-9876616D02*
X12141253Y-9886140D01*
X12141253Y-9886140D02*
X12122206Y-9895664D01*
X12122206Y-9895664D02*
X12093634Y-9895664D01*
X12274587Y-9895664D02*
X12255539Y-9886140D01*
X12255539Y-9886140D02*
X12246015Y-9867092D01*
X12246015Y-9867092D02*
X12246015Y-9695664D01*
X12426968Y-9886140D02*
X12407920Y-9895664D01*
X12407920Y-9895664D02*
X12369825Y-9895664D01*
X12369825Y-9895664D02*
X12350777Y-9886140D01*
X12350777Y-9886140D02*
X12341253Y-9867092D01*
X12341253Y-9867092D02*
X12341253Y-9790902D01*
X12341253Y-9790902D02*
X12350777Y-9771854D01*
X12350777Y-9771854D02*
X12369825Y-9762330D01*
X12369825Y-9762330D02*
X12407920Y-9762330D01*
X12407920Y-9762330D02*
X12426968Y-9771854D01*
X12426968Y-9771854D02*
X12436491Y-9790902D01*
X12436491Y-9790902D02*
X12436491Y-9809950D01*
X12436491Y-9809950D02*
X12341253Y-9828997D01*
X12512682Y-9886140D02*
X12531730Y-9895664D01*
X12531730Y-9895664D02*
X12569825Y-9895664D01*
X12569825Y-9895664D02*
X12588872Y-9886140D01*
X12588872Y-9886140D02*
X12598396Y-9867092D01*
X12598396Y-9867092D02*
X12598396Y-9857569D01*
X12598396Y-9857569D02*
X12588872Y-9838521D01*
X12588872Y-9838521D02*
X12569825Y-9828997D01*
X12569825Y-9828997D02*
X12541253Y-9828997D01*
X12541253Y-9828997D02*
X12522206Y-9819473D01*
X12522206Y-9819473D02*
X12512682Y-9800426D01*
X12512682Y-9800426D02*
X12512682Y-9790902D01*
X12512682Y-9790902D02*
X12522206Y-9771854D01*
X12522206Y-9771854D02*
X12541253Y-9762330D01*
X12541253Y-9762330D02*
X12569825Y-9762330D01*
X12569825Y-9762330D02*
X12588872Y-9771854D01*
X12665063Y-9971854D02*
X12674587Y-9962330D01*
X12674587Y-9962330D02*
X12693634Y-9933759D01*
X12693634Y-9933759D02*
X12703158Y-9914711D01*
X12703158Y-9914711D02*
X12712682Y-9886140D01*
X12712682Y-9886140D02*
X12722206Y-9838521D01*
X12722206Y-9838521D02*
X12722206Y-9800426D01*
X12722206Y-9800426D02*
X12712682Y-9752807D01*
X12712682Y-9752807D02*
X12703158Y-9724235D01*
X12703158Y-9724235D02*
X12693634Y-9705188D01*
X12693634Y-9705188D02*
X12674587Y-9676616D01*
X12674587Y-9676616D02*
X12665063Y-9667092D01*
X13026968Y-9971854D02*
X13017444Y-9962330D01*
X13017444Y-9962330D02*
X12998396Y-9933759D01*
X12998396Y-9933759D02*
X12988872Y-9914711D01*
X12988872Y-9914711D02*
X12979349Y-9886140D01*
X12979349Y-9886140D02*
X12969825Y-9838521D01*
X12969825Y-9838521D02*
X12969825Y-9800426D01*
X12969825Y-9800426D02*
X12979349Y-9752807D01*
X12979349Y-9752807D02*
X12988872Y-9724235D01*
X12988872Y-9724235D02*
X12998396Y-9705188D01*
X12998396Y-9705188D02*
X13017444Y-9676616D01*
X13017444Y-9676616D02*
X13026968Y-9667092D01*
X13103158Y-9762330D02*
X13103158Y-9895664D01*
X13103158Y-9781378D02*
X13112682Y-9771854D01*
X13112682Y-9771854D02*
X13131730Y-9762330D01*
X13131730Y-9762330D02*
X13160301Y-9762330D01*
X13160301Y-9762330D02*
X13179349Y-9771854D01*
X13179349Y-9771854D02*
X13188872Y-9790902D01*
X13188872Y-9790902D02*
X13188872Y-9895664D01*
X13312682Y-9895664D02*
X13293634Y-9886140D01*
X13293634Y-9886140D02*
X13284111Y-9876616D01*
X13284111Y-9876616D02*
X13274587Y-9857569D01*
X13274587Y-9857569D02*
X13274587Y-9800426D01*
X13274587Y-9800426D02*
X13284111Y-9781378D01*
X13284111Y-9781378D02*
X13293634Y-9771854D01*
X13293634Y-9771854D02*
X13312682Y-9762330D01*
X13312682Y-9762330D02*
X13341253Y-9762330D01*
X13341253Y-9762330D02*
X13360301Y-9771854D01*
X13360301Y-9771854D02*
X13369825Y-9781378D01*
X13369825Y-9781378D02*
X13379349Y-9800426D01*
X13379349Y-9800426D02*
X13379349Y-9857569D01*
X13379349Y-9857569D02*
X13369825Y-9876616D01*
X13369825Y-9876616D02*
X13360301Y-9886140D01*
X13360301Y-9886140D02*
X13341253Y-9895664D01*
X13341253Y-9895664D02*
X13312682Y-9895664D01*
X13436492Y-9762330D02*
X13512682Y-9762330D01*
X13465063Y-9695664D02*
X13465063Y-9867092D01*
X13465063Y-9867092D02*
X13474587Y-9886140D01*
X13474587Y-9886140D02*
X13493634Y-9895664D01*
X13493634Y-9895664D02*
X13512682Y-9895664D01*
X13731730Y-9762330D02*
X13731730Y-9962330D01*
X13731730Y-9771854D02*
X13750777Y-9762330D01*
X13750777Y-9762330D02*
X13788873Y-9762330D01*
X13788873Y-9762330D02*
X13807920Y-9771854D01*
X13807920Y-9771854D02*
X13817444Y-9781378D01*
X13817444Y-9781378D02*
X13826968Y-9800426D01*
X13826968Y-9800426D02*
X13826968Y-9857569D01*
X13826968Y-9857569D02*
X13817444Y-9876616D01*
X13817444Y-9876616D02*
X13807920Y-9886140D01*
X13807920Y-9886140D02*
X13788873Y-9895664D01*
X13788873Y-9895664D02*
X13750777Y-9895664D01*
X13750777Y-9895664D02*
X13731730Y-9886140D01*
X13941253Y-9895664D02*
X13922206Y-9886140D01*
X13922206Y-9886140D02*
X13912682Y-9867092D01*
X13912682Y-9867092D02*
X13912682Y-9695664D01*
X14103158Y-9895664D02*
X14103158Y-9790902D01*
X14103158Y-9790902D02*
X14093634Y-9771854D01*
X14093634Y-9771854D02*
X14074587Y-9762330D01*
X14074587Y-9762330D02*
X14036492Y-9762330D01*
X14036492Y-9762330D02*
X14017444Y-9771854D01*
X14103158Y-9886140D02*
X14084111Y-9895664D01*
X14084111Y-9895664D02*
X14036492Y-9895664D01*
X14036492Y-9895664D02*
X14017444Y-9886140D01*
X14017444Y-9886140D02*
X14007920Y-9867092D01*
X14007920Y-9867092D02*
X14007920Y-9848045D01*
X14007920Y-9848045D02*
X14017444Y-9828997D01*
X14017444Y-9828997D02*
X14036492Y-9819473D01*
X14036492Y-9819473D02*
X14084111Y-9819473D01*
X14084111Y-9819473D02*
X14103158Y-9809950D01*
X14169825Y-9762330D02*
X14246015Y-9762330D01*
X14198396Y-9695664D02*
X14198396Y-9867092D01*
X14198396Y-9867092D02*
X14207920Y-9886140D01*
X14207920Y-9886140D02*
X14226968Y-9895664D01*
X14226968Y-9895664D02*
X14246015Y-9895664D01*
X14388873Y-9886140D02*
X14369825Y-9895664D01*
X14369825Y-9895664D02*
X14331730Y-9895664D01*
X14331730Y-9895664D02*
X14312682Y-9886140D01*
X14312682Y-9886140D02*
X14303158Y-9867092D01*
X14303158Y-9867092D02*
X14303158Y-9790902D01*
X14303158Y-9790902D02*
X14312682Y-9771854D01*
X14312682Y-9771854D02*
X14331730Y-9762330D01*
X14331730Y-9762330D02*
X14369825Y-9762330D01*
X14369825Y-9762330D02*
X14388873Y-9771854D01*
X14388873Y-9771854D02*
X14398396Y-9790902D01*
X14398396Y-9790902D02*
X14398396Y-9809950D01*
X14398396Y-9809950D02*
X14303158Y-9828997D01*
X14569825Y-9895664D02*
X14569825Y-9695664D01*
X14569825Y-9886140D02*
X14550777Y-9895664D01*
X14550777Y-9895664D02*
X14512682Y-9895664D01*
X14512682Y-9895664D02*
X14493634Y-9886140D01*
X14493634Y-9886140D02*
X14484111Y-9876616D01*
X14484111Y-9876616D02*
X14474587Y-9857569D01*
X14474587Y-9857569D02*
X14474587Y-9800426D01*
X14474587Y-9800426D02*
X14484111Y-9781378D01*
X14484111Y-9781378D02*
X14493634Y-9771854D01*
X14493634Y-9771854D02*
X14512682Y-9762330D01*
X14512682Y-9762330D02*
X14550777Y-9762330D01*
X14550777Y-9762330D02*
X14569825Y-9771854D01*
X14646015Y-9971854D02*
X14655539Y-9962330D01*
X14655539Y-9962330D02*
X14674587Y-9933759D01*
X14674587Y-9933759D02*
X14684111Y-9914711D01*
X14684111Y-9914711D02*
X14693634Y-9886140D01*
X14693634Y-9886140D02*
X14703158Y-9838521D01*
X14703158Y-9838521D02*
X14703158Y-9800426D01*
X14703158Y-9800426D02*
X14693634Y-9752807D01*
X14693634Y-9752807D02*
X14684111Y-9724235D01*
X14684111Y-9724235D02*
X14674587Y-9705188D01*
X14674587Y-9705188D02*
X14655539Y-9676616D01*
X14655539Y-9676616D02*
X14646015Y-9667092D01*
M02*
