%TF.GenerationSoftware,KiCad,Pcbnew,8.0.6*%
%TF.CreationDate,2024-11-27T16:10:29-06:00*%
%TF.ProjectId,hotdog_pad,686f7464-6f67-45f7-9061-642e6b696361,rev?*%
%TF.SameCoordinates,Original*%
%TF.FileFunction,Soldermask,Bot*%
%TF.FilePolarity,Negative*%
%FSLAX46Y46*%
G04 Gerber Fmt 4.6, Leading zero omitted, Abs format (unit mm)*
G04 Created by KiCad (PCBNEW 8.0.6) date 2024-11-27 16:10:29*
%MOMM*%
%LPD*%
G01*
G04 APERTURE LIST*
%ADD10C,1.701800*%
%ADD11C,3.429000*%
%ADD12C,0.990600*%
%ADD13C,2.032000*%
%ADD14R,2.000000X2.000000*%
%ADD15C,2.000000*%
%ADD16R,2.000000X3.200000*%
%ADD17R,1.600000X1.600000*%
%ADD18C,1.600000*%
G04 APERTURE END LIST*
D10*
%TO.C,SW6*%
X155780000Y-46700000D03*
D11*
X161280000Y-46700000D03*
D12*
X166500000Y-42500000D03*
D10*
X166780000Y-46700000D03*
D13*
X161280000Y-52600000D03*
X156280000Y-50500000D03*
%TD*%
D10*
%TO.C,SW1*%
X83780000Y-46700000D03*
D11*
X89280000Y-46700000D03*
D12*
X94500000Y-42500000D03*
D10*
X94780000Y-46700000D03*
D13*
X89280000Y-52600000D03*
X84280000Y-50500000D03*
%TD*%
D10*
%TO.C,SW3*%
X119780000Y-46700000D03*
D11*
X125280000Y-46700000D03*
D12*
X130500000Y-42500000D03*
D10*
X130780000Y-46700000D03*
D13*
X125280000Y-52600000D03*
X120280000Y-50500000D03*
%TD*%
D10*
%TO.C,SW4*%
X137780000Y-46700000D03*
D11*
X143280000Y-46700000D03*
D12*
X148500000Y-42500000D03*
D10*
X148780000Y-46700000D03*
D13*
X143280000Y-52600000D03*
X138280000Y-50500000D03*
%TD*%
D10*
%TO.C,SW2*%
X101780000Y-46700000D03*
D11*
X107280000Y-46700000D03*
D12*
X112500000Y-42500000D03*
D10*
X112780000Y-46700000D03*
D13*
X107280000Y-52600000D03*
X102280000Y-50500000D03*
%TD*%
D14*
%TO.C,SW5*%
X163780000Y-39450000D03*
D15*
X158780000Y-39450000D03*
X161280000Y-39450000D03*
D16*
X166880000Y-46950000D03*
X155680000Y-46950000D03*
D15*
X158780000Y-53950000D03*
X163780000Y-53950000D03*
%TD*%
D17*
%TO.C,U1*%
X132900000Y-40500000D03*
D18*
X132900000Y-43040000D03*
X132900000Y-45580000D03*
X132900000Y-48120000D03*
X132900000Y-50660000D03*
X132900000Y-53200000D03*
X132900000Y-55740000D03*
X117660000Y-55740000D03*
X117660000Y-53200000D03*
X117660000Y-50660000D03*
X117660000Y-48120000D03*
X117660000Y-45580000D03*
X117660000Y-43040000D03*
X117660000Y-40500000D03*
%TD*%
M02*
