M48
; DRILL file {KiCad 8.0.6} date 2024-11-27T16:10:33-0600
; FORMAT={-:-/ absolute / inch / decimal}
; #@! TF.CreationDate,2024-11-27T16:10:33-06:00
; #@! TF.GenerationSoftware,Kicad,Pcbnew,8.0.6
; #@! TF.FileFunction,Plated,1,2,PTH
FMAT,2
INCH
; #@! TA.AperFunction,Plated,PTH,ComponentDrill
T1C0.0394
; #@! TA.AperFunction,Plated,PTH,ComponentDrill
T2C0.0500
; #@! TA.AperFunction,Plated,PTH,ComponentDrill
T3C0.0591
%
G90
G05
T1
X4.6323Y-1.5945
X4.6323Y-1.6945
X4.6323Y-1.7945
X4.6323Y-1.8945
X4.6323Y-1.9945
X4.6323Y-2.0945
X4.6323Y-2.1945
X5.2323Y-1.5945
X5.2323Y-1.6945
X5.2323Y-1.7945
X5.2323Y-1.8945
X5.2323Y-1.9945
X5.2323Y-2.0945
X5.2323Y-2.1945
X6.2512Y-1.5531
X6.2512Y-2.124
X6.3496Y-1.5531
X6.448Y-1.5531
X6.448Y-2.124
T2
X3.3181Y-1.9882
X3.515Y-2.0709
X4.0268Y-1.9882
X4.2236Y-2.0709
X4.7354Y-1.9882
X4.9323Y-2.0709
X5.4441Y-1.9882
X5.6409Y-2.0709
X6.1528Y-1.9882
X6.3496Y-2.0709
T3
G00X6.1291Y-1.8228
M15
G01X6.1291Y-1.874
M16
G05
G00X6.5701Y-1.8228
M15
G01X6.5701Y-1.874
M16
G05
M30
