%TF.GenerationSoftware,KiCad,Pcbnew,8.0.6*%
%TF.CreationDate,2024-11-27T16:10:35-06:00*%
%TF.ProjectId,hotdog_pad,686f7464-6f67-45f7-9061-642e6b696361,rev?*%
%TF.SameCoordinates,Original*%
%TF.FileFunction,Drillmap*%
%TF.FilePolarity,Positive*%
%FSLAX45Y45*%
G04 Gerber Fmt 4.5, Leading zero omitted, Abs format (unit mm)*
G04 Created by KiCad (PCBNEW 8.0.6) date 2024-11-27 16:10:35*
%MOMM*%
%LPD*%
G01*
G04 APERTURE LIST*
%ADD10C,0.200000*%
%ADD11C,0.100000*%
%ADD12C,0.127000*%
%ADD13C,0.150000*%
G04 APERTURE END LIST*
D10*
X8300000Y-8600000D02*
X16800000Y-8600000D01*
X16800000Y-3600000D02*
G75*
G02*
X17200000Y-4000000I0J-400000D01*
G01*
X7900000Y-4000000D02*
G75*
G02*
X8300000Y-3600000I400000J0D01*
G01*
X17200000Y-8200000D02*
G75*
G02*
X16800000Y-8600000I-400000J0D01*
G01*
X17200000Y-8200000D02*
X17200000Y-4000000D01*
X7900000Y-4000000D02*
X7900000Y-8200000D01*
X16800000Y-3600000D02*
X8300000Y-3600000D01*
X8300000Y-8600000D02*
G75*
G02*
X7900000Y-8200000I0J400000D01*
G01*
D11*
X11716000Y-4000000D02*
X11816000Y-4100000D01*
X11816000Y-4000000D02*
X11716000Y-4100000D01*
X11716000Y-4254000D02*
X11816000Y-4354000D01*
X11816000Y-4254000D02*
X11716000Y-4354000D01*
X11716000Y-4508000D02*
X11816000Y-4608000D01*
X11816000Y-4508000D02*
X11716000Y-4608000D01*
X11716000Y-4762000D02*
X11816000Y-4862000D01*
X11816000Y-4762000D02*
X11716000Y-4862000D01*
X11716000Y-5016000D02*
X11816000Y-5116000D01*
X11816000Y-5016000D02*
X11716000Y-5116000D01*
X11716000Y-5270000D02*
X11816000Y-5370000D01*
X11816000Y-5270000D02*
X11716000Y-5370000D01*
X11716000Y-5524000D02*
X11816000Y-5624000D01*
X11816000Y-5524000D02*
X11716000Y-5624000D01*
X13240000Y-4000000D02*
X13340000Y-4100000D01*
X13340000Y-4000000D02*
X13240000Y-4100000D01*
X13240000Y-4254000D02*
X13340000Y-4354000D01*
X13340000Y-4254000D02*
X13240000Y-4354000D01*
X13240000Y-4508000D02*
X13340000Y-4608000D01*
X13340000Y-4508000D02*
X13240000Y-4608000D01*
X13240000Y-4762000D02*
X13340000Y-4862000D01*
X13340000Y-4762000D02*
X13240000Y-4862000D01*
X13240000Y-5016000D02*
X13340000Y-5116000D01*
X13340000Y-5016000D02*
X13240000Y-5116000D01*
X13240000Y-5270000D02*
X13340000Y-5370000D01*
X13340000Y-5270000D02*
X13240000Y-5370000D01*
X13240000Y-5524000D02*
X13340000Y-5624000D01*
X13340000Y-5524000D02*
X13240000Y-5624000D01*
X15828000Y-3895000D02*
X15928000Y-3995000D01*
X15928000Y-3895000D02*
X15828000Y-3995000D01*
X15828000Y-5345000D02*
X15928000Y-5445000D01*
X15928000Y-5345000D02*
X15828000Y-5445000D01*
X16078000Y-3895000D02*
X16178000Y-3995000D01*
X16178000Y-3895000D02*
X16078000Y-3995000D01*
X16328000Y-3895000D02*
X16428000Y-3995000D01*
X16428000Y-3895000D02*
X16328000Y-3995000D01*
X16328000Y-5345000D02*
X16428000Y-5445000D01*
X16428000Y-5345000D02*
X16328000Y-5445000D01*
D12*
X8491500Y-5050000D02*
G75*
G02*
X8364500Y-5050000I-63500J0D01*
G01*
X8364500Y-5050000D02*
G75*
G02*
X8491500Y-5050000I63500J0D01*
G01*
X8991500Y-5260000D02*
G75*
G02*
X8864500Y-5260000I-63500J0D01*
G01*
X8864500Y-5260000D02*
G75*
G02*
X8991500Y-5260000I63500J0D01*
G01*
X10291500Y-5050000D02*
G75*
G02*
X10164500Y-5050000I-63500J0D01*
G01*
X10164500Y-5050000D02*
G75*
G02*
X10291500Y-5050000I63500J0D01*
G01*
X10791500Y-5260000D02*
G75*
G02*
X10664500Y-5260000I-63500J0D01*
G01*
X10664500Y-5260000D02*
G75*
G02*
X10791500Y-5260000I63500J0D01*
G01*
X12091500Y-5050000D02*
G75*
G02*
X11964500Y-5050000I-63500J0D01*
G01*
X11964500Y-5050000D02*
G75*
G02*
X12091500Y-5050000I63500J0D01*
G01*
X12591500Y-5260000D02*
G75*
G02*
X12464500Y-5260000I-63500J0D01*
G01*
X12464500Y-5260000D02*
G75*
G02*
X12591500Y-5260000I63500J0D01*
G01*
X13891500Y-5050000D02*
G75*
G02*
X13764500Y-5050000I-63500J0D01*
G01*
X13764500Y-5050000D02*
G75*
G02*
X13891500Y-5050000I63500J0D01*
G01*
X14391500Y-5260000D02*
G75*
G02*
X14264500Y-5260000I-63500J0D01*
G01*
X14264500Y-5260000D02*
G75*
G02*
X14391500Y-5260000I63500J0D01*
G01*
X15691500Y-5050000D02*
G75*
G02*
X15564500Y-5050000I-63500J0D01*
G01*
X15564500Y-5050000D02*
G75*
G02*
X15691500Y-5050000I63500J0D01*
G01*
X16191500Y-5260000D02*
G75*
G02*
X16064500Y-5260000I-63500J0D01*
G01*
X16064500Y-5260000D02*
G75*
G02*
X16191500Y-5260000I63500J0D01*
G01*
D13*
X15568000Y-4620000D02*
X15568000Y-4770000D01*
X15493000Y-4695000D02*
X15643000Y-4695000D01*
D11*
X15493000Y-4630000D02*
X15493000Y-4760000D01*
X15643000Y-4760000D02*
G75*
G02*
X15493000Y-4760000I-75000J0D01*
G01*
X15643000Y-4760000D02*
X15643000Y-4630000D01*
X15643000Y-4630000D02*
G75*
G03*
X15493000Y-4630000I-75000J0D01*
G01*
D13*
X16688000Y-4620000D02*
X16688000Y-4770000D01*
X16613000Y-4695000D02*
X16763000Y-4695000D01*
D11*
X16613000Y-4630000D02*
X16613000Y-4760000D01*
X16763000Y-4760000D02*
G75*
G02*
X16613000Y-4760000I-75000J0D01*
G01*
X16763000Y-4760000D02*
X16763000Y-4630000D01*
X16763000Y-4630000D02*
G75*
G03*
X16613000Y-4630000I-75000J0D01*
G01*
D10*
X8150777Y-8921484D02*
X8150777Y-8721484D01*
X8150777Y-8721484D02*
X8198396Y-8721484D01*
X8198396Y-8721484D02*
X8226967Y-8731008D01*
X8226967Y-8731008D02*
X8246015Y-8750055D01*
X8246015Y-8750055D02*
X8255539Y-8769103D01*
X8255539Y-8769103D02*
X8265062Y-8807198D01*
X8265062Y-8807198D02*
X8265062Y-8835770D01*
X8265062Y-8835770D02*
X8255539Y-8873865D01*
X8255539Y-8873865D02*
X8246015Y-8892912D01*
X8246015Y-8892912D02*
X8226967Y-8911960D01*
X8226967Y-8911960D02*
X8198396Y-8921484D01*
X8198396Y-8921484D02*
X8150777Y-8921484D01*
X8350777Y-8921484D02*
X8350777Y-8788150D01*
X8350777Y-8826246D02*
X8360301Y-8807198D01*
X8360301Y-8807198D02*
X8369824Y-8797674D01*
X8369824Y-8797674D02*
X8388872Y-8788150D01*
X8388872Y-8788150D02*
X8407920Y-8788150D01*
X8474586Y-8921484D02*
X8474586Y-8788150D01*
X8474586Y-8721484D02*
X8465063Y-8731008D01*
X8465063Y-8731008D02*
X8474586Y-8740531D01*
X8474586Y-8740531D02*
X8484110Y-8731008D01*
X8484110Y-8731008D02*
X8474586Y-8721484D01*
X8474586Y-8721484D02*
X8474586Y-8740531D01*
X8598396Y-8921484D02*
X8579348Y-8911960D01*
X8579348Y-8911960D02*
X8569824Y-8892912D01*
X8569824Y-8892912D02*
X8569824Y-8721484D01*
X8703158Y-8921484D02*
X8684110Y-8911960D01*
X8684110Y-8911960D02*
X8674586Y-8892912D01*
X8674586Y-8892912D02*
X8674586Y-8721484D01*
X8931729Y-8921484D02*
X8931729Y-8721484D01*
X8931729Y-8721484D02*
X8998396Y-8864341D01*
X8998396Y-8864341D02*
X9065063Y-8721484D01*
X9065063Y-8721484D02*
X9065063Y-8921484D01*
X9246015Y-8921484D02*
X9246015Y-8816722D01*
X9246015Y-8816722D02*
X9236491Y-8797674D01*
X9236491Y-8797674D02*
X9217444Y-8788150D01*
X9217444Y-8788150D02*
X9179348Y-8788150D01*
X9179348Y-8788150D02*
X9160301Y-8797674D01*
X9246015Y-8911960D02*
X9226967Y-8921484D01*
X9226967Y-8921484D02*
X9179348Y-8921484D01*
X9179348Y-8921484D02*
X9160301Y-8911960D01*
X9160301Y-8911960D02*
X9150777Y-8892912D01*
X9150777Y-8892912D02*
X9150777Y-8873865D01*
X9150777Y-8873865D02*
X9160301Y-8854817D01*
X9160301Y-8854817D02*
X9179348Y-8845293D01*
X9179348Y-8845293D02*
X9226967Y-8845293D01*
X9226967Y-8845293D02*
X9246015Y-8835770D01*
X9341253Y-8788150D02*
X9341253Y-8988150D01*
X9341253Y-8797674D02*
X9360301Y-8788150D01*
X9360301Y-8788150D02*
X9398396Y-8788150D01*
X9398396Y-8788150D02*
X9417444Y-8797674D01*
X9417444Y-8797674D02*
X9426967Y-8807198D01*
X9426967Y-8807198D02*
X9436491Y-8826246D01*
X9436491Y-8826246D02*
X9436491Y-8883389D01*
X9436491Y-8883389D02*
X9426967Y-8902436D01*
X9426967Y-8902436D02*
X9417444Y-8911960D01*
X9417444Y-8911960D02*
X9398396Y-8921484D01*
X9398396Y-8921484D02*
X9360301Y-8921484D01*
X9360301Y-8921484D02*
X9341253Y-8911960D01*
X9522205Y-8902436D02*
X9531729Y-8911960D01*
X9531729Y-8911960D02*
X9522205Y-8921484D01*
X9522205Y-8921484D02*
X9512682Y-8911960D01*
X9512682Y-8911960D02*
X9522205Y-8902436D01*
X9522205Y-8902436D02*
X9522205Y-8921484D01*
X9522205Y-8797674D02*
X9531729Y-8807198D01*
X9531729Y-8807198D02*
X9522205Y-8816722D01*
X9522205Y-8816722D02*
X9512682Y-8807198D01*
X9512682Y-8807198D02*
X9522205Y-8797674D01*
X9522205Y-8797674D02*
X9522205Y-8816722D01*
D11*
X7790000Y-9200000D02*
X7890000Y-9300000D01*
X7890000Y-9200000D02*
X7790000Y-9300000D01*
D10*
X8255539Y-9341484D02*
X8141253Y-9341484D01*
X8198396Y-9341484D02*
X8198396Y-9141484D01*
X8198396Y-9141484D02*
X8179348Y-9170055D01*
X8179348Y-9170055D02*
X8160301Y-9189103D01*
X8160301Y-9189103D02*
X8141253Y-9198627D01*
X8341253Y-9322436D02*
X8350777Y-9331960D01*
X8350777Y-9331960D02*
X8341253Y-9341484D01*
X8341253Y-9341484D02*
X8331729Y-9331960D01*
X8331729Y-9331960D02*
X8341253Y-9322436D01*
X8341253Y-9322436D02*
X8341253Y-9341484D01*
X8474586Y-9141484D02*
X8493634Y-9141484D01*
X8493634Y-9141484D02*
X8512682Y-9151008D01*
X8512682Y-9151008D02*
X8522205Y-9160531D01*
X8522205Y-9160531D02*
X8531729Y-9179579D01*
X8531729Y-9179579D02*
X8541253Y-9217674D01*
X8541253Y-9217674D02*
X8541253Y-9265293D01*
X8541253Y-9265293D02*
X8531729Y-9303389D01*
X8531729Y-9303389D02*
X8522205Y-9322436D01*
X8522205Y-9322436D02*
X8512682Y-9331960D01*
X8512682Y-9331960D02*
X8493634Y-9341484D01*
X8493634Y-9341484D02*
X8474586Y-9341484D01*
X8474586Y-9341484D02*
X8455539Y-9331960D01*
X8455539Y-9331960D02*
X8446015Y-9322436D01*
X8446015Y-9322436D02*
X8436491Y-9303389D01*
X8436491Y-9303389D02*
X8426967Y-9265293D01*
X8426967Y-9265293D02*
X8426967Y-9217674D01*
X8426967Y-9217674D02*
X8436491Y-9179579D01*
X8436491Y-9179579D02*
X8446015Y-9160531D01*
X8446015Y-9160531D02*
X8455539Y-9151008D01*
X8455539Y-9151008D02*
X8474586Y-9141484D01*
X8665063Y-9141484D02*
X8684110Y-9141484D01*
X8684110Y-9141484D02*
X8703158Y-9151008D01*
X8703158Y-9151008D02*
X8712682Y-9160531D01*
X8712682Y-9160531D02*
X8722205Y-9179579D01*
X8722205Y-9179579D02*
X8731729Y-9217674D01*
X8731729Y-9217674D02*
X8731729Y-9265293D01*
X8731729Y-9265293D02*
X8722205Y-9303389D01*
X8722205Y-9303389D02*
X8712682Y-9322436D01*
X8712682Y-9322436D02*
X8703158Y-9331960D01*
X8703158Y-9331960D02*
X8684110Y-9341484D01*
X8684110Y-9341484D02*
X8665063Y-9341484D01*
X8665063Y-9341484D02*
X8646015Y-9331960D01*
X8646015Y-9331960D02*
X8636491Y-9322436D01*
X8636491Y-9322436D02*
X8626967Y-9303389D01*
X8626967Y-9303389D02*
X8617444Y-9265293D01*
X8617444Y-9265293D02*
X8617444Y-9217674D01*
X8617444Y-9217674D02*
X8626967Y-9179579D01*
X8626967Y-9179579D02*
X8636491Y-9160531D01*
X8636491Y-9160531D02*
X8646015Y-9151008D01*
X8646015Y-9151008D02*
X8665063Y-9141484D01*
X8855539Y-9141484D02*
X8874586Y-9141484D01*
X8874586Y-9141484D02*
X8893634Y-9151008D01*
X8893634Y-9151008D02*
X8903158Y-9160531D01*
X8903158Y-9160531D02*
X8912682Y-9179579D01*
X8912682Y-9179579D02*
X8922205Y-9217674D01*
X8922205Y-9217674D02*
X8922205Y-9265293D01*
X8922205Y-9265293D02*
X8912682Y-9303389D01*
X8912682Y-9303389D02*
X8903158Y-9322436D01*
X8903158Y-9322436D02*
X8893634Y-9331960D01*
X8893634Y-9331960D02*
X8874586Y-9341484D01*
X8874586Y-9341484D02*
X8855539Y-9341484D01*
X8855539Y-9341484D02*
X8836491Y-9331960D01*
X8836491Y-9331960D02*
X8826967Y-9322436D01*
X8826967Y-9322436D02*
X8817444Y-9303389D01*
X8817444Y-9303389D02*
X8807920Y-9265293D01*
X8807920Y-9265293D02*
X8807920Y-9217674D01*
X8807920Y-9217674D02*
X8817444Y-9179579D01*
X8817444Y-9179579D02*
X8826967Y-9160531D01*
X8826967Y-9160531D02*
X8836491Y-9151008D01*
X8836491Y-9151008D02*
X8855539Y-9141484D01*
X9007920Y-9341484D02*
X9007920Y-9208150D01*
X9007920Y-9227198D02*
X9017444Y-9217674D01*
X9017444Y-9217674D02*
X9036491Y-9208150D01*
X9036491Y-9208150D02*
X9065063Y-9208150D01*
X9065063Y-9208150D02*
X9084110Y-9217674D01*
X9084110Y-9217674D02*
X9093634Y-9236722D01*
X9093634Y-9236722D02*
X9093634Y-9341484D01*
X9093634Y-9236722D02*
X9103158Y-9217674D01*
X9103158Y-9217674D02*
X9122205Y-9208150D01*
X9122205Y-9208150D02*
X9150777Y-9208150D01*
X9150777Y-9208150D02*
X9169825Y-9217674D01*
X9169825Y-9217674D02*
X9179348Y-9236722D01*
X9179348Y-9236722D02*
X9179348Y-9341484D01*
X9274586Y-9341484D02*
X9274586Y-9208150D01*
X9274586Y-9227198D02*
X9284110Y-9217674D01*
X9284110Y-9217674D02*
X9303158Y-9208150D01*
X9303158Y-9208150D02*
X9331729Y-9208150D01*
X9331729Y-9208150D02*
X9350777Y-9217674D01*
X9350777Y-9217674D02*
X9360301Y-9236722D01*
X9360301Y-9236722D02*
X9360301Y-9341484D01*
X9360301Y-9236722D02*
X9369825Y-9217674D01*
X9369825Y-9217674D02*
X9388872Y-9208150D01*
X9388872Y-9208150D02*
X9417444Y-9208150D01*
X9417444Y-9208150D02*
X9436491Y-9217674D01*
X9436491Y-9217674D02*
X9446015Y-9236722D01*
X9446015Y-9236722D02*
X9446015Y-9341484D01*
X9836491Y-9131960D02*
X9665063Y-9389103D01*
X10093634Y-9141484D02*
X10112682Y-9141484D01*
X10112682Y-9141484D02*
X10131729Y-9151008D01*
X10131729Y-9151008D02*
X10141253Y-9160531D01*
X10141253Y-9160531D02*
X10150777Y-9179579D01*
X10150777Y-9179579D02*
X10160301Y-9217674D01*
X10160301Y-9217674D02*
X10160301Y-9265293D01*
X10160301Y-9265293D02*
X10150777Y-9303389D01*
X10150777Y-9303389D02*
X10141253Y-9322436D01*
X10141253Y-9322436D02*
X10131729Y-9331960D01*
X10131729Y-9331960D02*
X10112682Y-9341484D01*
X10112682Y-9341484D02*
X10093634Y-9341484D01*
X10093634Y-9341484D02*
X10074587Y-9331960D01*
X10074587Y-9331960D02*
X10065063Y-9322436D01*
X10065063Y-9322436D02*
X10055539Y-9303389D01*
X10055539Y-9303389D02*
X10046015Y-9265293D01*
X10046015Y-9265293D02*
X10046015Y-9217674D01*
X10046015Y-9217674D02*
X10055539Y-9179579D01*
X10055539Y-9179579D02*
X10065063Y-9160531D01*
X10065063Y-9160531D02*
X10074587Y-9151008D01*
X10074587Y-9151008D02*
X10093634Y-9141484D01*
X10246015Y-9322436D02*
X10255539Y-9331960D01*
X10255539Y-9331960D02*
X10246015Y-9341484D01*
X10246015Y-9341484D02*
X10236491Y-9331960D01*
X10236491Y-9331960D02*
X10246015Y-9322436D01*
X10246015Y-9322436D02*
X10246015Y-9341484D01*
X10379348Y-9141484D02*
X10398396Y-9141484D01*
X10398396Y-9141484D02*
X10417444Y-9151008D01*
X10417444Y-9151008D02*
X10426968Y-9160531D01*
X10426968Y-9160531D02*
X10436491Y-9179579D01*
X10436491Y-9179579D02*
X10446015Y-9217674D01*
X10446015Y-9217674D02*
X10446015Y-9265293D01*
X10446015Y-9265293D02*
X10436491Y-9303389D01*
X10436491Y-9303389D02*
X10426968Y-9322436D01*
X10426968Y-9322436D02*
X10417444Y-9331960D01*
X10417444Y-9331960D02*
X10398396Y-9341484D01*
X10398396Y-9341484D02*
X10379348Y-9341484D01*
X10379348Y-9341484D02*
X10360301Y-9331960D01*
X10360301Y-9331960D02*
X10350777Y-9322436D01*
X10350777Y-9322436D02*
X10341253Y-9303389D01*
X10341253Y-9303389D02*
X10331729Y-9265293D01*
X10331729Y-9265293D02*
X10331729Y-9217674D01*
X10331729Y-9217674D02*
X10341253Y-9179579D01*
X10341253Y-9179579D02*
X10350777Y-9160531D01*
X10350777Y-9160531D02*
X10360301Y-9151008D01*
X10360301Y-9151008D02*
X10379348Y-9141484D01*
X10512682Y-9141484D02*
X10636491Y-9141484D01*
X10636491Y-9141484D02*
X10569825Y-9217674D01*
X10569825Y-9217674D02*
X10598396Y-9217674D01*
X10598396Y-9217674D02*
X10617444Y-9227198D01*
X10617444Y-9227198D02*
X10626968Y-9236722D01*
X10626968Y-9236722D02*
X10636491Y-9255770D01*
X10636491Y-9255770D02*
X10636491Y-9303389D01*
X10636491Y-9303389D02*
X10626968Y-9322436D01*
X10626968Y-9322436D02*
X10617444Y-9331960D01*
X10617444Y-9331960D02*
X10598396Y-9341484D01*
X10598396Y-9341484D02*
X10541253Y-9341484D01*
X10541253Y-9341484D02*
X10522206Y-9331960D01*
X10522206Y-9331960D02*
X10512682Y-9322436D01*
X10731729Y-9341484D02*
X10769825Y-9341484D01*
X10769825Y-9341484D02*
X10788872Y-9331960D01*
X10788872Y-9331960D02*
X10798396Y-9322436D01*
X10798396Y-9322436D02*
X10817444Y-9293865D01*
X10817444Y-9293865D02*
X10826968Y-9255770D01*
X10826968Y-9255770D02*
X10826968Y-9179579D01*
X10826968Y-9179579D02*
X10817444Y-9160531D01*
X10817444Y-9160531D02*
X10807920Y-9151008D01*
X10807920Y-9151008D02*
X10788872Y-9141484D01*
X10788872Y-9141484D02*
X10750777Y-9141484D01*
X10750777Y-9141484D02*
X10731729Y-9151008D01*
X10731729Y-9151008D02*
X10722206Y-9160531D01*
X10722206Y-9160531D02*
X10712682Y-9179579D01*
X10712682Y-9179579D02*
X10712682Y-9227198D01*
X10712682Y-9227198D02*
X10722206Y-9246246D01*
X10722206Y-9246246D02*
X10731729Y-9255770D01*
X10731729Y-9255770D02*
X10750777Y-9265293D01*
X10750777Y-9265293D02*
X10788872Y-9265293D01*
X10788872Y-9265293D02*
X10807920Y-9255770D01*
X10807920Y-9255770D02*
X10817444Y-9246246D01*
X10817444Y-9246246D02*
X10826968Y-9227198D01*
X10998396Y-9208150D02*
X10998396Y-9341484D01*
X10950777Y-9131960D02*
X10903158Y-9274817D01*
X10903158Y-9274817D02*
X11026968Y-9274817D01*
X11093634Y-9141484D02*
X11093634Y-9179579D01*
X11169825Y-9141484D02*
X11169825Y-9179579D01*
X11465063Y-9417674D02*
X11455539Y-9408150D01*
X11455539Y-9408150D02*
X11436491Y-9379579D01*
X11436491Y-9379579D02*
X11426968Y-9360531D01*
X11426968Y-9360531D02*
X11417444Y-9331960D01*
X11417444Y-9331960D02*
X11407920Y-9284341D01*
X11407920Y-9284341D02*
X11407920Y-9246246D01*
X11407920Y-9246246D02*
X11417444Y-9198627D01*
X11417444Y-9198627D02*
X11426968Y-9170055D01*
X11426968Y-9170055D02*
X11436491Y-9151008D01*
X11436491Y-9151008D02*
X11455539Y-9122436D01*
X11455539Y-9122436D02*
X11465063Y-9112912D01*
X11646015Y-9341484D02*
X11531729Y-9341484D01*
X11588872Y-9341484D02*
X11588872Y-9141484D01*
X11588872Y-9141484D02*
X11569825Y-9170055D01*
X11569825Y-9170055D02*
X11550777Y-9189103D01*
X11550777Y-9189103D02*
X11531729Y-9198627D01*
X11741253Y-9341484D02*
X11779348Y-9341484D01*
X11779348Y-9341484D02*
X11798396Y-9331960D01*
X11798396Y-9331960D02*
X11807920Y-9322436D01*
X11807920Y-9322436D02*
X11826968Y-9293865D01*
X11826968Y-9293865D02*
X11836491Y-9255770D01*
X11836491Y-9255770D02*
X11836491Y-9179579D01*
X11836491Y-9179579D02*
X11826968Y-9160531D01*
X11826968Y-9160531D02*
X11817444Y-9151008D01*
X11817444Y-9151008D02*
X11798396Y-9141484D01*
X11798396Y-9141484D02*
X11760301Y-9141484D01*
X11760301Y-9141484D02*
X11741253Y-9151008D01*
X11741253Y-9151008D02*
X11731729Y-9160531D01*
X11731729Y-9160531D02*
X11722206Y-9179579D01*
X11722206Y-9179579D02*
X11722206Y-9227198D01*
X11722206Y-9227198D02*
X11731729Y-9246246D01*
X11731729Y-9246246D02*
X11741253Y-9255770D01*
X11741253Y-9255770D02*
X11760301Y-9265293D01*
X11760301Y-9265293D02*
X11798396Y-9265293D01*
X11798396Y-9265293D02*
X11817444Y-9255770D01*
X11817444Y-9255770D02*
X11826968Y-9246246D01*
X11826968Y-9246246D02*
X11836491Y-9227198D01*
X12074587Y-9341484D02*
X12074587Y-9141484D01*
X12160301Y-9341484D02*
X12160301Y-9236722D01*
X12160301Y-9236722D02*
X12150777Y-9217674D01*
X12150777Y-9217674D02*
X12131730Y-9208150D01*
X12131730Y-9208150D02*
X12103158Y-9208150D01*
X12103158Y-9208150D02*
X12084110Y-9217674D01*
X12084110Y-9217674D02*
X12074587Y-9227198D01*
X12284110Y-9341484D02*
X12265063Y-9331960D01*
X12265063Y-9331960D02*
X12255539Y-9322436D01*
X12255539Y-9322436D02*
X12246015Y-9303389D01*
X12246015Y-9303389D02*
X12246015Y-9246246D01*
X12246015Y-9246246D02*
X12255539Y-9227198D01*
X12255539Y-9227198D02*
X12265063Y-9217674D01*
X12265063Y-9217674D02*
X12284110Y-9208150D01*
X12284110Y-9208150D02*
X12312682Y-9208150D01*
X12312682Y-9208150D02*
X12331730Y-9217674D01*
X12331730Y-9217674D02*
X12341253Y-9227198D01*
X12341253Y-9227198D02*
X12350777Y-9246246D01*
X12350777Y-9246246D02*
X12350777Y-9303389D01*
X12350777Y-9303389D02*
X12341253Y-9322436D01*
X12341253Y-9322436D02*
X12331730Y-9331960D01*
X12331730Y-9331960D02*
X12312682Y-9341484D01*
X12312682Y-9341484D02*
X12284110Y-9341484D01*
X12465063Y-9341484D02*
X12446015Y-9331960D01*
X12446015Y-9331960D02*
X12436491Y-9312912D01*
X12436491Y-9312912D02*
X12436491Y-9141484D01*
X12617444Y-9331960D02*
X12598396Y-9341484D01*
X12598396Y-9341484D02*
X12560301Y-9341484D01*
X12560301Y-9341484D02*
X12541253Y-9331960D01*
X12541253Y-9331960D02*
X12531730Y-9312912D01*
X12531730Y-9312912D02*
X12531730Y-9236722D01*
X12531730Y-9236722D02*
X12541253Y-9217674D01*
X12541253Y-9217674D02*
X12560301Y-9208150D01*
X12560301Y-9208150D02*
X12598396Y-9208150D01*
X12598396Y-9208150D02*
X12617444Y-9217674D01*
X12617444Y-9217674D02*
X12626968Y-9236722D01*
X12626968Y-9236722D02*
X12626968Y-9255770D01*
X12626968Y-9255770D02*
X12531730Y-9274817D01*
X12703158Y-9331960D02*
X12722206Y-9341484D01*
X12722206Y-9341484D02*
X12760301Y-9341484D01*
X12760301Y-9341484D02*
X12779349Y-9331960D01*
X12779349Y-9331960D02*
X12788872Y-9312912D01*
X12788872Y-9312912D02*
X12788872Y-9303389D01*
X12788872Y-9303389D02*
X12779349Y-9284341D01*
X12779349Y-9284341D02*
X12760301Y-9274817D01*
X12760301Y-9274817D02*
X12731730Y-9274817D01*
X12731730Y-9274817D02*
X12712682Y-9265293D01*
X12712682Y-9265293D02*
X12703158Y-9246246D01*
X12703158Y-9246246D02*
X12703158Y-9236722D01*
X12703158Y-9236722D02*
X12712682Y-9217674D01*
X12712682Y-9217674D02*
X12731730Y-9208150D01*
X12731730Y-9208150D02*
X12760301Y-9208150D01*
X12760301Y-9208150D02*
X12779349Y-9217674D01*
X12855539Y-9417674D02*
X12865063Y-9408150D01*
X12865063Y-9408150D02*
X12884111Y-9379579D01*
X12884111Y-9379579D02*
X12893634Y-9360531D01*
X12893634Y-9360531D02*
X12903158Y-9331960D01*
X12903158Y-9331960D02*
X12912682Y-9284341D01*
X12912682Y-9284341D02*
X12912682Y-9246246D01*
X12912682Y-9246246D02*
X12903158Y-9198627D01*
X12903158Y-9198627D02*
X12893634Y-9170055D01*
X12893634Y-9170055D02*
X12884111Y-9151008D01*
X12884111Y-9151008D02*
X12865063Y-9122436D01*
X12865063Y-9122436D02*
X12855539Y-9112912D01*
D12*
X7890000Y-9514000D02*
G75*
G02*
X7763000Y-9514000I-63500J0D01*
G01*
X7763000Y-9514000D02*
G75*
G02*
X7890000Y-9514000I63500J0D01*
G01*
D10*
X8255539Y-9605484D02*
X8141253Y-9605484D01*
X8198396Y-9605484D02*
X8198396Y-9405484D01*
X8198396Y-9405484D02*
X8179348Y-9434055D01*
X8179348Y-9434055D02*
X8160301Y-9453103D01*
X8160301Y-9453103D02*
X8141253Y-9462627D01*
X8341253Y-9586436D02*
X8350777Y-9595960D01*
X8350777Y-9595960D02*
X8341253Y-9605484D01*
X8341253Y-9605484D02*
X8331729Y-9595960D01*
X8331729Y-9595960D02*
X8341253Y-9586436D01*
X8341253Y-9586436D02*
X8341253Y-9605484D01*
X8426967Y-9424531D02*
X8436491Y-9415008D01*
X8436491Y-9415008D02*
X8455539Y-9405484D01*
X8455539Y-9405484D02*
X8503158Y-9405484D01*
X8503158Y-9405484D02*
X8522205Y-9415008D01*
X8522205Y-9415008D02*
X8531729Y-9424531D01*
X8531729Y-9424531D02*
X8541253Y-9443579D01*
X8541253Y-9443579D02*
X8541253Y-9462627D01*
X8541253Y-9462627D02*
X8531729Y-9491198D01*
X8531729Y-9491198D02*
X8417444Y-9605484D01*
X8417444Y-9605484D02*
X8541253Y-9605484D01*
X8607920Y-9405484D02*
X8741253Y-9405484D01*
X8741253Y-9405484D02*
X8655539Y-9605484D01*
X8855539Y-9405484D02*
X8874586Y-9405484D01*
X8874586Y-9405484D02*
X8893634Y-9415008D01*
X8893634Y-9415008D02*
X8903158Y-9424531D01*
X8903158Y-9424531D02*
X8912682Y-9443579D01*
X8912682Y-9443579D02*
X8922205Y-9481674D01*
X8922205Y-9481674D02*
X8922205Y-9529293D01*
X8922205Y-9529293D02*
X8912682Y-9567389D01*
X8912682Y-9567389D02*
X8903158Y-9586436D01*
X8903158Y-9586436D02*
X8893634Y-9595960D01*
X8893634Y-9595960D02*
X8874586Y-9605484D01*
X8874586Y-9605484D02*
X8855539Y-9605484D01*
X8855539Y-9605484D02*
X8836491Y-9595960D01*
X8836491Y-9595960D02*
X8826967Y-9586436D01*
X8826967Y-9586436D02*
X8817444Y-9567389D01*
X8817444Y-9567389D02*
X8807920Y-9529293D01*
X8807920Y-9529293D02*
X8807920Y-9481674D01*
X8807920Y-9481674D02*
X8817444Y-9443579D01*
X8817444Y-9443579D02*
X8826967Y-9424531D01*
X8826967Y-9424531D02*
X8836491Y-9415008D01*
X8836491Y-9415008D02*
X8855539Y-9405484D01*
X9007920Y-9605484D02*
X9007920Y-9472150D01*
X9007920Y-9491198D02*
X9017444Y-9481674D01*
X9017444Y-9481674D02*
X9036491Y-9472150D01*
X9036491Y-9472150D02*
X9065063Y-9472150D01*
X9065063Y-9472150D02*
X9084110Y-9481674D01*
X9084110Y-9481674D02*
X9093634Y-9500722D01*
X9093634Y-9500722D02*
X9093634Y-9605484D01*
X9093634Y-9500722D02*
X9103158Y-9481674D01*
X9103158Y-9481674D02*
X9122205Y-9472150D01*
X9122205Y-9472150D02*
X9150777Y-9472150D01*
X9150777Y-9472150D02*
X9169825Y-9481674D01*
X9169825Y-9481674D02*
X9179348Y-9500722D01*
X9179348Y-9500722D02*
X9179348Y-9605484D01*
X9274586Y-9605484D02*
X9274586Y-9472150D01*
X9274586Y-9491198D02*
X9284110Y-9481674D01*
X9284110Y-9481674D02*
X9303158Y-9472150D01*
X9303158Y-9472150D02*
X9331729Y-9472150D01*
X9331729Y-9472150D02*
X9350777Y-9481674D01*
X9350777Y-9481674D02*
X9360301Y-9500722D01*
X9360301Y-9500722D02*
X9360301Y-9605484D01*
X9360301Y-9500722D02*
X9369825Y-9481674D01*
X9369825Y-9481674D02*
X9388872Y-9472150D01*
X9388872Y-9472150D02*
X9417444Y-9472150D01*
X9417444Y-9472150D02*
X9436491Y-9481674D01*
X9436491Y-9481674D02*
X9446015Y-9500722D01*
X9446015Y-9500722D02*
X9446015Y-9605484D01*
X9836491Y-9395960D02*
X9665063Y-9653103D01*
X10093634Y-9405484D02*
X10112682Y-9405484D01*
X10112682Y-9405484D02*
X10131729Y-9415008D01*
X10131729Y-9415008D02*
X10141253Y-9424531D01*
X10141253Y-9424531D02*
X10150777Y-9443579D01*
X10150777Y-9443579D02*
X10160301Y-9481674D01*
X10160301Y-9481674D02*
X10160301Y-9529293D01*
X10160301Y-9529293D02*
X10150777Y-9567389D01*
X10150777Y-9567389D02*
X10141253Y-9586436D01*
X10141253Y-9586436D02*
X10131729Y-9595960D01*
X10131729Y-9595960D02*
X10112682Y-9605484D01*
X10112682Y-9605484D02*
X10093634Y-9605484D01*
X10093634Y-9605484D02*
X10074587Y-9595960D01*
X10074587Y-9595960D02*
X10065063Y-9586436D01*
X10065063Y-9586436D02*
X10055539Y-9567389D01*
X10055539Y-9567389D02*
X10046015Y-9529293D01*
X10046015Y-9529293D02*
X10046015Y-9481674D01*
X10046015Y-9481674D02*
X10055539Y-9443579D01*
X10055539Y-9443579D02*
X10065063Y-9424531D01*
X10065063Y-9424531D02*
X10074587Y-9415008D01*
X10074587Y-9415008D02*
X10093634Y-9405484D01*
X10246015Y-9586436D02*
X10255539Y-9595960D01*
X10255539Y-9595960D02*
X10246015Y-9605484D01*
X10246015Y-9605484D02*
X10236491Y-9595960D01*
X10236491Y-9595960D02*
X10246015Y-9586436D01*
X10246015Y-9586436D02*
X10246015Y-9605484D01*
X10379348Y-9405484D02*
X10398396Y-9405484D01*
X10398396Y-9405484D02*
X10417444Y-9415008D01*
X10417444Y-9415008D02*
X10426968Y-9424531D01*
X10426968Y-9424531D02*
X10436491Y-9443579D01*
X10436491Y-9443579D02*
X10446015Y-9481674D01*
X10446015Y-9481674D02*
X10446015Y-9529293D01*
X10446015Y-9529293D02*
X10436491Y-9567389D01*
X10436491Y-9567389D02*
X10426968Y-9586436D01*
X10426968Y-9586436D02*
X10417444Y-9595960D01*
X10417444Y-9595960D02*
X10398396Y-9605484D01*
X10398396Y-9605484D02*
X10379348Y-9605484D01*
X10379348Y-9605484D02*
X10360301Y-9595960D01*
X10360301Y-9595960D02*
X10350777Y-9586436D01*
X10350777Y-9586436D02*
X10341253Y-9567389D01*
X10341253Y-9567389D02*
X10331729Y-9529293D01*
X10331729Y-9529293D02*
X10331729Y-9481674D01*
X10331729Y-9481674D02*
X10341253Y-9443579D01*
X10341253Y-9443579D02*
X10350777Y-9424531D01*
X10350777Y-9424531D02*
X10360301Y-9415008D01*
X10360301Y-9415008D02*
X10379348Y-9405484D01*
X10626968Y-9405484D02*
X10531729Y-9405484D01*
X10531729Y-9405484D02*
X10522206Y-9500722D01*
X10522206Y-9500722D02*
X10531729Y-9491198D01*
X10531729Y-9491198D02*
X10550777Y-9481674D01*
X10550777Y-9481674D02*
X10598396Y-9481674D01*
X10598396Y-9481674D02*
X10617444Y-9491198D01*
X10617444Y-9491198D02*
X10626968Y-9500722D01*
X10626968Y-9500722D02*
X10636491Y-9519770D01*
X10636491Y-9519770D02*
X10636491Y-9567389D01*
X10636491Y-9567389D02*
X10626968Y-9586436D01*
X10626968Y-9586436D02*
X10617444Y-9595960D01*
X10617444Y-9595960D02*
X10598396Y-9605484D01*
X10598396Y-9605484D02*
X10550777Y-9605484D01*
X10550777Y-9605484D02*
X10531729Y-9595960D01*
X10531729Y-9595960D02*
X10522206Y-9586436D01*
X10760301Y-9405484D02*
X10779349Y-9405484D01*
X10779349Y-9405484D02*
X10798396Y-9415008D01*
X10798396Y-9415008D02*
X10807920Y-9424531D01*
X10807920Y-9424531D02*
X10817444Y-9443579D01*
X10817444Y-9443579D02*
X10826968Y-9481674D01*
X10826968Y-9481674D02*
X10826968Y-9529293D01*
X10826968Y-9529293D02*
X10817444Y-9567389D01*
X10817444Y-9567389D02*
X10807920Y-9586436D01*
X10807920Y-9586436D02*
X10798396Y-9595960D01*
X10798396Y-9595960D02*
X10779349Y-9605484D01*
X10779349Y-9605484D02*
X10760301Y-9605484D01*
X10760301Y-9605484D02*
X10741253Y-9595960D01*
X10741253Y-9595960D02*
X10731729Y-9586436D01*
X10731729Y-9586436D02*
X10722206Y-9567389D01*
X10722206Y-9567389D02*
X10712682Y-9529293D01*
X10712682Y-9529293D02*
X10712682Y-9481674D01*
X10712682Y-9481674D02*
X10722206Y-9443579D01*
X10722206Y-9443579D02*
X10731729Y-9424531D01*
X10731729Y-9424531D02*
X10741253Y-9415008D01*
X10741253Y-9415008D02*
X10760301Y-9405484D01*
X10950777Y-9405484D02*
X10969825Y-9405484D01*
X10969825Y-9405484D02*
X10988872Y-9415008D01*
X10988872Y-9415008D02*
X10998396Y-9424531D01*
X10998396Y-9424531D02*
X11007920Y-9443579D01*
X11007920Y-9443579D02*
X11017444Y-9481674D01*
X11017444Y-9481674D02*
X11017444Y-9529293D01*
X11017444Y-9529293D02*
X11007920Y-9567389D01*
X11007920Y-9567389D02*
X10998396Y-9586436D01*
X10998396Y-9586436D02*
X10988872Y-9595960D01*
X10988872Y-9595960D02*
X10969825Y-9605484D01*
X10969825Y-9605484D02*
X10950777Y-9605484D01*
X10950777Y-9605484D02*
X10931729Y-9595960D01*
X10931729Y-9595960D02*
X10922206Y-9586436D01*
X10922206Y-9586436D02*
X10912682Y-9567389D01*
X10912682Y-9567389D02*
X10903158Y-9529293D01*
X10903158Y-9529293D02*
X10903158Y-9481674D01*
X10903158Y-9481674D02*
X10912682Y-9443579D01*
X10912682Y-9443579D02*
X10922206Y-9424531D01*
X10922206Y-9424531D02*
X10931729Y-9415008D01*
X10931729Y-9415008D02*
X10950777Y-9405484D01*
X11093634Y-9405484D02*
X11093634Y-9443579D01*
X11169825Y-9405484D02*
X11169825Y-9443579D01*
X11465063Y-9681674D02*
X11455539Y-9672150D01*
X11455539Y-9672150D02*
X11436491Y-9643579D01*
X11436491Y-9643579D02*
X11426968Y-9624531D01*
X11426968Y-9624531D02*
X11417444Y-9595960D01*
X11417444Y-9595960D02*
X11407920Y-9548341D01*
X11407920Y-9548341D02*
X11407920Y-9510246D01*
X11407920Y-9510246D02*
X11417444Y-9462627D01*
X11417444Y-9462627D02*
X11426968Y-9434055D01*
X11426968Y-9434055D02*
X11436491Y-9415008D01*
X11436491Y-9415008D02*
X11455539Y-9386436D01*
X11455539Y-9386436D02*
X11465063Y-9376912D01*
X11646015Y-9605484D02*
X11531729Y-9605484D01*
X11588872Y-9605484D02*
X11588872Y-9405484D01*
X11588872Y-9405484D02*
X11569825Y-9434055D01*
X11569825Y-9434055D02*
X11550777Y-9453103D01*
X11550777Y-9453103D02*
X11531729Y-9462627D01*
X11769825Y-9405484D02*
X11788872Y-9405484D01*
X11788872Y-9405484D02*
X11807920Y-9415008D01*
X11807920Y-9415008D02*
X11817444Y-9424531D01*
X11817444Y-9424531D02*
X11826968Y-9443579D01*
X11826968Y-9443579D02*
X11836491Y-9481674D01*
X11836491Y-9481674D02*
X11836491Y-9529293D01*
X11836491Y-9529293D02*
X11826968Y-9567389D01*
X11826968Y-9567389D02*
X11817444Y-9586436D01*
X11817444Y-9586436D02*
X11807920Y-9595960D01*
X11807920Y-9595960D02*
X11788872Y-9605484D01*
X11788872Y-9605484D02*
X11769825Y-9605484D01*
X11769825Y-9605484D02*
X11750777Y-9595960D01*
X11750777Y-9595960D02*
X11741253Y-9586436D01*
X11741253Y-9586436D02*
X11731729Y-9567389D01*
X11731729Y-9567389D02*
X11722206Y-9529293D01*
X11722206Y-9529293D02*
X11722206Y-9481674D01*
X11722206Y-9481674D02*
X11731729Y-9443579D01*
X11731729Y-9443579D02*
X11741253Y-9424531D01*
X11741253Y-9424531D02*
X11750777Y-9415008D01*
X11750777Y-9415008D02*
X11769825Y-9405484D01*
X12074587Y-9605484D02*
X12074587Y-9405484D01*
X12160301Y-9605484D02*
X12160301Y-9500722D01*
X12160301Y-9500722D02*
X12150777Y-9481674D01*
X12150777Y-9481674D02*
X12131730Y-9472150D01*
X12131730Y-9472150D02*
X12103158Y-9472150D01*
X12103158Y-9472150D02*
X12084110Y-9481674D01*
X12084110Y-9481674D02*
X12074587Y-9491198D01*
X12284110Y-9605484D02*
X12265063Y-9595960D01*
X12265063Y-9595960D02*
X12255539Y-9586436D01*
X12255539Y-9586436D02*
X12246015Y-9567389D01*
X12246015Y-9567389D02*
X12246015Y-9510246D01*
X12246015Y-9510246D02*
X12255539Y-9491198D01*
X12255539Y-9491198D02*
X12265063Y-9481674D01*
X12265063Y-9481674D02*
X12284110Y-9472150D01*
X12284110Y-9472150D02*
X12312682Y-9472150D01*
X12312682Y-9472150D02*
X12331730Y-9481674D01*
X12331730Y-9481674D02*
X12341253Y-9491198D01*
X12341253Y-9491198D02*
X12350777Y-9510246D01*
X12350777Y-9510246D02*
X12350777Y-9567389D01*
X12350777Y-9567389D02*
X12341253Y-9586436D01*
X12341253Y-9586436D02*
X12331730Y-9595960D01*
X12331730Y-9595960D02*
X12312682Y-9605484D01*
X12312682Y-9605484D02*
X12284110Y-9605484D01*
X12465063Y-9605484D02*
X12446015Y-9595960D01*
X12446015Y-9595960D02*
X12436491Y-9576912D01*
X12436491Y-9576912D02*
X12436491Y-9405484D01*
X12617444Y-9595960D02*
X12598396Y-9605484D01*
X12598396Y-9605484D02*
X12560301Y-9605484D01*
X12560301Y-9605484D02*
X12541253Y-9595960D01*
X12541253Y-9595960D02*
X12531730Y-9576912D01*
X12531730Y-9576912D02*
X12531730Y-9500722D01*
X12531730Y-9500722D02*
X12541253Y-9481674D01*
X12541253Y-9481674D02*
X12560301Y-9472150D01*
X12560301Y-9472150D02*
X12598396Y-9472150D01*
X12598396Y-9472150D02*
X12617444Y-9481674D01*
X12617444Y-9481674D02*
X12626968Y-9500722D01*
X12626968Y-9500722D02*
X12626968Y-9519770D01*
X12626968Y-9519770D02*
X12531730Y-9538817D01*
X12703158Y-9595960D02*
X12722206Y-9605484D01*
X12722206Y-9605484D02*
X12760301Y-9605484D01*
X12760301Y-9605484D02*
X12779349Y-9595960D01*
X12779349Y-9595960D02*
X12788872Y-9576912D01*
X12788872Y-9576912D02*
X12788872Y-9567389D01*
X12788872Y-9567389D02*
X12779349Y-9548341D01*
X12779349Y-9548341D02*
X12760301Y-9538817D01*
X12760301Y-9538817D02*
X12731730Y-9538817D01*
X12731730Y-9538817D02*
X12712682Y-9529293D01*
X12712682Y-9529293D02*
X12703158Y-9510246D01*
X12703158Y-9510246D02*
X12703158Y-9500722D01*
X12703158Y-9500722D02*
X12712682Y-9481674D01*
X12712682Y-9481674D02*
X12731730Y-9472150D01*
X12731730Y-9472150D02*
X12760301Y-9472150D01*
X12760301Y-9472150D02*
X12779349Y-9481674D01*
X12855539Y-9681674D02*
X12865063Y-9672150D01*
X12865063Y-9672150D02*
X12884111Y-9643579D01*
X12884111Y-9643579D02*
X12893634Y-9624531D01*
X12893634Y-9624531D02*
X12903158Y-9595960D01*
X12903158Y-9595960D02*
X12912682Y-9548341D01*
X12912682Y-9548341D02*
X12912682Y-9510246D01*
X12912682Y-9510246D02*
X12903158Y-9462627D01*
X12903158Y-9462627D02*
X12893634Y-9434055D01*
X12893634Y-9434055D02*
X12884111Y-9415008D01*
X12884111Y-9415008D02*
X12865063Y-9386436D01*
X12865063Y-9386436D02*
X12855539Y-9376912D01*
D13*
X7815000Y-9703000D02*
X7815000Y-9853000D01*
X7740000Y-9778000D02*
X7890000Y-9778000D01*
D10*
X8255539Y-9869484D02*
X8141253Y-9869484D01*
X8198396Y-9869484D02*
X8198396Y-9669484D01*
X8198396Y-9669484D02*
X8179348Y-9698055D01*
X8179348Y-9698055D02*
X8160301Y-9717103D01*
X8160301Y-9717103D02*
X8141253Y-9726627D01*
X8341253Y-9850436D02*
X8350777Y-9859960D01*
X8350777Y-9859960D02*
X8341253Y-9869484D01*
X8341253Y-9869484D02*
X8331729Y-9859960D01*
X8331729Y-9859960D02*
X8341253Y-9850436D01*
X8341253Y-9850436D02*
X8341253Y-9869484D01*
X8531729Y-9669484D02*
X8436491Y-9669484D01*
X8436491Y-9669484D02*
X8426967Y-9764722D01*
X8426967Y-9764722D02*
X8436491Y-9755198D01*
X8436491Y-9755198D02*
X8455539Y-9745674D01*
X8455539Y-9745674D02*
X8503158Y-9745674D01*
X8503158Y-9745674D02*
X8522205Y-9755198D01*
X8522205Y-9755198D02*
X8531729Y-9764722D01*
X8531729Y-9764722D02*
X8541253Y-9783770D01*
X8541253Y-9783770D02*
X8541253Y-9831389D01*
X8541253Y-9831389D02*
X8531729Y-9850436D01*
X8531729Y-9850436D02*
X8522205Y-9859960D01*
X8522205Y-9859960D02*
X8503158Y-9869484D01*
X8503158Y-9869484D02*
X8455539Y-9869484D01*
X8455539Y-9869484D02*
X8436491Y-9859960D01*
X8436491Y-9859960D02*
X8426967Y-9850436D01*
X8665063Y-9669484D02*
X8684110Y-9669484D01*
X8684110Y-9669484D02*
X8703158Y-9679008D01*
X8703158Y-9679008D02*
X8712682Y-9688531D01*
X8712682Y-9688531D02*
X8722205Y-9707579D01*
X8722205Y-9707579D02*
X8731729Y-9745674D01*
X8731729Y-9745674D02*
X8731729Y-9793293D01*
X8731729Y-9793293D02*
X8722205Y-9831389D01*
X8722205Y-9831389D02*
X8712682Y-9850436D01*
X8712682Y-9850436D02*
X8703158Y-9859960D01*
X8703158Y-9859960D02*
X8684110Y-9869484D01*
X8684110Y-9869484D02*
X8665063Y-9869484D01*
X8665063Y-9869484D02*
X8646015Y-9859960D01*
X8646015Y-9859960D02*
X8636491Y-9850436D01*
X8636491Y-9850436D02*
X8626967Y-9831389D01*
X8626967Y-9831389D02*
X8617444Y-9793293D01*
X8617444Y-9793293D02*
X8617444Y-9745674D01*
X8617444Y-9745674D02*
X8626967Y-9707579D01*
X8626967Y-9707579D02*
X8636491Y-9688531D01*
X8636491Y-9688531D02*
X8646015Y-9679008D01*
X8646015Y-9679008D02*
X8665063Y-9669484D01*
X8855539Y-9669484D02*
X8874586Y-9669484D01*
X8874586Y-9669484D02*
X8893634Y-9679008D01*
X8893634Y-9679008D02*
X8903158Y-9688531D01*
X8903158Y-9688531D02*
X8912682Y-9707579D01*
X8912682Y-9707579D02*
X8922205Y-9745674D01*
X8922205Y-9745674D02*
X8922205Y-9793293D01*
X8922205Y-9793293D02*
X8912682Y-9831389D01*
X8912682Y-9831389D02*
X8903158Y-9850436D01*
X8903158Y-9850436D02*
X8893634Y-9859960D01*
X8893634Y-9859960D02*
X8874586Y-9869484D01*
X8874586Y-9869484D02*
X8855539Y-9869484D01*
X8855539Y-9869484D02*
X8836491Y-9859960D01*
X8836491Y-9859960D02*
X8826967Y-9850436D01*
X8826967Y-9850436D02*
X8817444Y-9831389D01*
X8817444Y-9831389D02*
X8807920Y-9793293D01*
X8807920Y-9793293D02*
X8807920Y-9745674D01*
X8807920Y-9745674D02*
X8817444Y-9707579D01*
X8817444Y-9707579D02*
X8826967Y-9688531D01*
X8826967Y-9688531D02*
X8836491Y-9679008D01*
X8836491Y-9679008D02*
X8855539Y-9669484D01*
X9007920Y-9869484D02*
X9007920Y-9736150D01*
X9007920Y-9755198D02*
X9017444Y-9745674D01*
X9017444Y-9745674D02*
X9036491Y-9736150D01*
X9036491Y-9736150D02*
X9065063Y-9736150D01*
X9065063Y-9736150D02*
X9084110Y-9745674D01*
X9084110Y-9745674D02*
X9093634Y-9764722D01*
X9093634Y-9764722D02*
X9093634Y-9869484D01*
X9093634Y-9764722D02*
X9103158Y-9745674D01*
X9103158Y-9745674D02*
X9122205Y-9736150D01*
X9122205Y-9736150D02*
X9150777Y-9736150D01*
X9150777Y-9736150D02*
X9169825Y-9745674D01*
X9169825Y-9745674D02*
X9179348Y-9764722D01*
X9179348Y-9764722D02*
X9179348Y-9869484D01*
X9274586Y-9869484D02*
X9274586Y-9736150D01*
X9274586Y-9755198D02*
X9284110Y-9745674D01*
X9284110Y-9745674D02*
X9303158Y-9736150D01*
X9303158Y-9736150D02*
X9331729Y-9736150D01*
X9331729Y-9736150D02*
X9350777Y-9745674D01*
X9350777Y-9745674D02*
X9360301Y-9764722D01*
X9360301Y-9764722D02*
X9360301Y-9869484D01*
X9360301Y-9764722D02*
X9369825Y-9745674D01*
X9369825Y-9745674D02*
X9388872Y-9736150D01*
X9388872Y-9736150D02*
X9417444Y-9736150D01*
X9417444Y-9736150D02*
X9436491Y-9745674D01*
X9436491Y-9745674D02*
X9446015Y-9764722D01*
X9446015Y-9764722D02*
X9446015Y-9869484D01*
X9836491Y-9659960D02*
X9665063Y-9917103D01*
X10093634Y-9669484D02*
X10112682Y-9669484D01*
X10112682Y-9669484D02*
X10131729Y-9679008D01*
X10131729Y-9679008D02*
X10141253Y-9688531D01*
X10141253Y-9688531D02*
X10150777Y-9707579D01*
X10150777Y-9707579D02*
X10160301Y-9745674D01*
X10160301Y-9745674D02*
X10160301Y-9793293D01*
X10160301Y-9793293D02*
X10150777Y-9831389D01*
X10150777Y-9831389D02*
X10141253Y-9850436D01*
X10141253Y-9850436D02*
X10131729Y-9859960D01*
X10131729Y-9859960D02*
X10112682Y-9869484D01*
X10112682Y-9869484D02*
X10093634Y-9869484D01*
X10093634Y-9869484D02*
X10074587Y-9859960D01*
X10074587Y-9859960D02*
X10065063Y-9850436D01*
X10065063Y-9850436D02*
X10055539Y-9831389D01*
X10055539Y-9831389D02*
X10046015Y-9793293D01*
X10046015Y-9793293D02*
X10046015Y-9745674D01*
X10046015Y-9745674D02*
X10055539Y-9707579D01*
X10055539Y-9707579D02*
X10065063Y-9688531D01*
X10065063Y-9688531D02*
X10074587Y-9679008D01*
X10074587Y-9679008D02*
X10093634Y-9669484D01*
X10246015Y-9850436D02*
X10255539Y-9859960D01*
X10255539Y-9859960D02*
X10246015Y-9869484D01*
X10246015Y-9869484D02*
X10236491Y-9859960D01*
X10236491Y-9859960D02*
X10246015Y-9850436D01*
X10246015Y-9850436D02*
X10246015Y-9869484D01*
X10379348Y-9669484D02*
X10398396Y-9669484D01*
X10398396Y-9669484D02*
X10417444Y-9679008D01*
X10417444Y-9679008D02*
X10426968Y-9688531D01*
X10426968Y-9688531D02*
X10436491Y-9707579D01*
X10436491Y-9707579D02*
X10446015Y-9745674D01*
X10446015Y-9745674D02*
X10446015Y-9793293D01*
X10446015Y-9793293D02*
X10436491Y-9831389D01*
X10436491Y-9831389D02*
X10426968Y-9850436D01*
X10426968Y-9850436D02*
X10417444Y-9859960D01*
X10417444Y-9859960D02*
X10398396Y-9869484D01*
X10398396Y-9869484D02*
X10379348Y-9869484D01*
X10379348Y-9869484D02*
X10360301Y-9859960D01*
X10360301Y-9859960D02*
X10350777Y-9850436D01*
X10350777Y-9850436D02*
X10341253Y-9831389D01*
X10341253Y-9831389D02*
X10331729Y-9793293D01*
X10331729Y-9793293D02*
X10331729Y-9745674D01*
X10331729Y-9745674D02*
X10341253Y-9707579D01*
X10341253Y-9707579D02*
X10350777Y-9688531D01*
X10350777Y-9688531D02*
X10360301Y-9679008D01*
X10360301Y-9679008D02*
X10379348Y-9669484D01*
X10626968Y-9669484D02*
X10531729Y-9669484D01*
X10531729Y-9669484D02*
X10522206Y-9764722D01*
X10522206Y-9764722D02*
X10531729Y-9755198D01*
X10531729Y-9755198D02*
X10550777Y-9745674D01*
X10550777Y-9745674D02*
X10598396Y-9745674D01*
X10598396Y-9745674D02*
X10617444Y-9755198D01*
X10617444Y-9755198D02*
X10626968Y-9764722D01*
X10626968Y-9764722D02*
X10636491Y-9783770D01*
X10636491Y-9783770D02*
X10636491Y-9831389D01*
X10636491Y-9831389D02*
X10626968Y-9850436D01*
X10626968Y-9850436D02*
X10617444Y-9859960D01*
X10617444Y-9859960D02*
X10598396Y-9869484D01*
X10598396Y-9869484D02*
X10550777Y-9869484D01*
X10550777Y-9869484D02*
X10531729Y-9859960D01*
X10531729Y-9859960D02*
X10522206Y-9850436D01*
X10731729Y-9869484D02*
X10769825Y-9869484D01*
X10769825Y-9869484D02*
X10788872Y-9859960D01*
X10788872Y-9859960D02*
X10798396Y-9850436D01*
X10798396Y-9850436D02*
X10817444Y-9821865D01*
X10817444Y-9821865D02*
X10826968Y-9783770D01*
X10826968Y-9783770D02*
X10826968Y-9707579D01*
X10826968Y-9707579D02*
X10817444Y-9688531D01*
X10817444Y-9688531D02*
X10807920Y-9679008D01*
X10807920Y-9679008D02*
X10788872Y-9669484D01*
X10788872Y-9669484D02*
X10750777Y-9669484D01*
X10750777Y-9669484D02*
X10731729Y-9679008D01*
X10731729Y-9679008D02*
X10722206Y-9688531D01*
X10722206Y-9688531D02*
X10712682Y-9707579D01*
X10712682Y-9707579D02*
X10712682Y-9755198D01*
X10712682Y-9755198D02*
X10722206Y-9774246D01*
X10722206Y-9774246D02*
X10731729Y-9783770D01*
X10731729Y-9783770D02*
X10750777Y-9793293D01*
X10750777Y-9793293D02*
X10788872Y-9793293D01*
X10788872Y-9793293D02*
X10807920Y-9783770D01*
X10807920Y-9783770D02*
X10817444Y-9774246D01*
X10817444Y-9774246D02*
X10826968Y-9755198D01*
X11017444Y-9869484D02*
X10903158Y-9869484D01*
X10960301Y-9869484D02*
X10960301Y-9669484D01*
X10960301Y-9669484D02*
X10941253Y-9698055D01*
X10941253Y-9698055D02*
X10922206Y-9717103D01*
X10922206Y-9717103D02*
X10903158Y-9726627D01*
X11093634Y-9669484D02*
X11093634Y-9707579D01*
X11169825Y-9669484D02*
X11169825Y-9707579D01*
X11465063Y-9945674D02*
X11455539Y-9936150D01*
X11455539Y-9936150D02*
X11436491Y-9907579D01*
X11436491Y-9907579D02*
X11426968Y-9888531D01*
X11426968Y-9888531D02*
X11417444Y-9859960D01*
X11417444Y-9859960D02*
X11407920Y-9812341D01*
X11407920Y-9812341D02*
X11407920Y-9774246D01*
X11407920Y-9774246D02*
X11417444Y-9726627D01*
X11417444Y-9726627D02*
X11426968Y-9698055D01*
X11426968Y-9698055D02*
X11436491Y-9679008D01*
X11436491Y-9679008D02*
X11455539Y-9650436D01*
X11455539Y-9650436D02*
X11465063Y-9640912D01*
X11579348Y-9669484D02*
X11598396Y-9669484D01*
X11598396Y-9669484D02*
X11617444Y-9679008D01*
X11617444Y-9679008D02*
X11626968Y-9688531D01*
X11626968Y-9688531D02*
X11636491Y-9707579D01*
X11636491Y-9707579D02*
X11646015Y-9745674D01*
X11646015Y-9745674D02*
X11646015Y-9793293D01*
X11646015Y-9793293D02*
X11636491Y-9831389D01*
X11636491Y-9831389D02*
X11626968Y-9850436D01*
X11626968Y-9850436D02*
X11617444Y-9859960D01*
X11617444Y-9859960D02*
X11598396Y-9869484D01*
X11598396Y-9869484D02*
X11579348Y-9869484D01*
X11579348Y-9869484D02*
X11560301Y-9859960D01*
X11560301Y-9859960D02*
X11550777Y-9850436D01*
X11550777Y-9850436D02*
X11541253Y-9831389D01*
X11541253Y-9831389D02*
X11531729Y-9793293D01*
X11531729Y-9793293D02*
X11531729Y-9745674D01*
X11531729Y-9745674D02*
X11541253Y-9707579D01*
X11541253Y-9707579D02*
X11550777Y-9688531D01*
X11550777Y-9688531D02*
X11560301Y-9679008D01*
X11560301Y-9679008D02*
X11579348Y-9669484D01*
X11884110Y-9869484D02*
X11884110Y-9669484D01*
X11969825Y-9869484D02*
X11969825Y-9764722D01*
X11969825Y-9764722D02*
X11960301Y-9745674D01*
X11960301Y-9745674D02*
X11941253Y-9736150D01*
X11941253Y-9736150D02*
X11912682Y-9736150D01*
X11912682Y-9736150D02*
X11893634Y-9745674D01*
X11893634Y-9745674D02*
X11884110Y-9755198D01*
X12093634Y-9869484D02*
X12074587Y-9859960D01*
X12074587Y-9859960D02*
X12065063Y-9850436D01*
X12065063Y-9850436D02*
X12055539Y-9831389D01*
X12055539Y-9831389D02*
X12055539Y-9774246D01*
X12055539Y-9774246D02*
X12065063Y-9755198D01*
X12065063Y-9755198D02*
X12074587Y-9745674D01*
X12074587Y-9745674D02*
X12093634Y-9736150D01*
X12093634Y-9736150D02*
X12122206Y-9736150D01*
X12122206Y-9736150D02*
X12141253Y-9745674D01*
X12141253Y-9745674D02*
X12150777Y-9755198D01*
X12150777Y-9755198D02*
X12160301Y-9774246D01*
X12160301Y-9774246D02*
X12160301Y-9831389D01*
X12160301Y-9831389D02*
X12150777Y-9850436D01*
X12150777Y-9850436D02*
X12141253Y-9859960D01*
X12141253Y-9859960D02*
X12122206Y-9869484D01*
X12122206Y-9869484D02*
X12093634Y-9869484D01*
X12274587Y-9869484D02*
X12255539Y-9859960D01*
X12255539Y-9859960D02*
X12246015Y-9840912D01*
X12246015Y-9840912D02*
X12246015Y-9669484D01*
X12426968Y-9859960D02*
X12407920Y-9869484D01*
X12407920Y-9869484D02*
X12369825Y-9869484D01*
X12369825Y-9869484D02*
X12350777Y-9859960D01*
X12350777Y-9859960D02*
X12341253Y-9840912D01*
X12341253Y-9840912D02*
X12341253Y-9764722D01*
X12341253Y-9764722D02*
X12350777Y-9745674D01*
X12350777Y-9745674D02*
X12369825Y-9736150D01*
X12369825Y-9736150D02*
X12407920Y-9736150D01*
X12407920Y-9736150D02*
X12426968Y-9745674D01*
X12426968Y-9745674D02*
X12436491Y-9764722D01*
X12436491Y-9764722D02*
X12436491Y-9783770D01*
X12436491Y-9783770D02*
X12341253Y-9802817D01*
X12512682Y-9859960D02*
X12531730Y-9869484D01*
X12531730Y-9869484D02*
X12569825Y-9869484D01*
X12569825Y-9869484D02*
X12588872Y-9859960D01*
X12588872Y-9859960D02*
X12598396Y-9840912D01*
X12598396Y-9840912D02*
X12598396Y-9831389D01*
X12598396Y-9831389D02*
X12588872Y-9812341D01*
X12588872Y-9812341D02*
X12569825Y-9802817D01*
X12569825Y-9802817D02*
X12541253Y-9802817D01*
X12541253Y-9802817D02*
X12522206Y-9793293D01*
X12522206Y-9793293D02*
X12512682Y-9774246D01*
X12512682Y-9774246D02*
X12512682Y-9764722D01*
X12512682Y-9764722D02*
X12522206Y-9745674D01*
X12522206Y-9745674D02*
X12541253Y-9736150D01*
X12541253Y-9736150D02*
X12569825Y-9736150D01*
X12569825Y-9736150D02*
X12588872Y-9745674D01*
X12836492Y-9793293D02*
X12988873Y-9793293D01*
X12912682Y-9869484D02*
X12912682Y-9717103D01*
X13226968Y-9688531D02*
X13236492Y-9679008D01*
X13236492Y-9679008D02*
X13255539Y-9669484D01*
X13255539Y-9669484D02*
X13303158Y-9669484D01*
X13303158Y-9669484D02*
X13322206Y-9679008D01*
X13322206Y-9679008D02*
X13331730Y-9688531D01*
X13331730Y-9688531D02*
X13341253Y-9707579D01*
X13341253Y-9707579D02*
X13341253Y-9726627D01*
X13341253Y-9726627D02*
X13331730Y-9755198D01*
X13331730Y-9755198D02*
X13217444Y-9869484D01*
X13217444Y-9869484D02*
X13341253Y-9869484D01*
X13569825Y-9859960D02*
X13588873Y-9869484D01*
X13588873Y-9869484D02*
X13626968Y-9869484D01*
X13626968Y-9869484D02*
X13646015Y-9859960D01*
X13646015Y-9859960D02*
X13655539Y-9840912D01*
X13655539Y-9840912D02*
X13655539Y-9831389D01*
X13655539Y-9831389D02*
X13646015Y-9812341D01*
X13646015Y-9812341D02*
X13626968Y-9802817D01*
X13626968Y-9802817D02*
X13598396Y-9802817D01*
X13598396Y-9802817D02*
X13579349Y-9793293D01*
X13579349Y-9793293D02*
X13569825Y-9774246D01*
X13569825Y-9774246D02*
X13569825Y-9764722D01*
X13569825Y-9764722D02*
X13579349Y-9745674D01*
X13579349Y-9745674D02*
X13598396Y-9736150D01*
X13598396Y-9736150D02*
X13626968Y-9736150D01*
X13626968Y-9736150D02*
X13646015Y-9745674D01*
X13769825Y-9869484D02*
X13750777Y-9859960D01*
X13750777Y-9859960D02*
X13741254Y-9840912D01*
X13741254Y-9840912D02*
X13741254Y-9669484D01*
X13874587Y-9869484D02*
X13855539Y-9859960D01*
X13855539Y-9859960D02*
X13846015Y-9850436D01*
X13846015Y-9850436D02*
X13836492Y-9831389D01*
X13836492Y-9831389D02*
X13836492Y-9774246D01*
X13836492Y-9774246D02*
X13846015Y-9755198D01*
X13846015Y-9755198D02*
X13855539Y-9745674D01*
X13855539Y-9745674D02*
X13874587Y-9736150D01*
X13874587Y-9736150D02*
X13903158Y-9736150D01*
X13903158Y-9736150D02*
X13922206Y-9745674D01*
X13922206Y-9745674D02*
X13931730Y-9755198D01*
X13931730Y-9755198D02*
X13941254Y-9774246D01*
X13941254Y-9774246D02*
X13941254Y-9831389D01*
X13941254Y-9831389D02*
X13931730Y-9850436D01*
X13931730Y-9850436D02*
X13922206Y-9859960D01*
X13922206Y-9859960D02*
X13903158Y-9869484D01*
X13903158Y-9869484D02*
X13874587Y-9869484D01*
X13998396Y-9736150D02*
X14074587Y-9736150D01*
X14026968Y-9669484D02*
X14026968Y-9840912D01*
X14026968Y-9840912D02*
X14036492Y-9859960D01*
X14036492Y-9859960D02*
X14055539Y-9869484D01*
X14055539Y-9869484D02*
X14074587Y-9869484D01*
X14131730Y-9859960D02*
X14150777Y-9869484D01*
X14150777Y-9869484D02*
X14188873Y-9869484D01*
X14188873Y-9869484D02*
X14207920Y-9859960D01*
X14207920Y-9859960D02*
X14217444Y-9840912D01*
X14217444Y-9840912D02*
X14217444Y-9831389D01*
X14217444Y-9831389D02*
X14207920Y-9812341D01*
X14207920Y-9812341D02*
X14188873Y-9802817D01*
X14188873Y-9802817D02*
X14160301Y-9802817D01*
X14160301Y-9802817D02*
X14141254Y-9793293D01*
X14141254Y-9793293D02*
X14131730Y-9774246D01*
X14131730Y-9774246D02*
X14131730Y-9764722D01*
X14131730Y-9764722D02*
X14141254Y-9745674D01*
X14141254Y-9745674D02*
X14160301Y-9736150D01*
X14160301Y-9736150D02*
X14188873Y-9736150D01*
X14188873Y-9736150D02*
X14207920Y-9745674D01*
X14284111Y-9945674D02*
X14293635Y-9936150D01*
X14293635Y-9936150D02*
X14312682Y-9907579D01*
X14312682Y-9907579D02*
X14322206Y-9888531D01*
X14322206Y-9888531D02*
X14331730Y-9859960D01*
X14331730Y-9859960D02*
X14341254Y-9812341D01*
X14341254Y-9812341D02*
X14341254Y-9774246D01*
X14341254Y-9774246D02*
X14331730Y-9726627D01*
X14331730Y-9726627D02*
X14322206Y-9698055D01*
X14322206Y-9698055D02*
X14312682Y-9679008D01*
X14312682Y-9679008D02*
X14293635Y-9650436D01*
X14293635Y-9650436D02*
X14284111Y-9640912D01*
M02*
